<svg width="167" height="31" viewBox="0 0 167 31" fill="none" xmlns="http://www.w3.org/2000/svg">
<path d="M37.8522 12.06C38.0789 11.9133 38.4189 11.76 38.8722 11.6C39.3389 11.44 39.8722 11.36 40.4722 11.36C41.2189 11.36 41.8789 11.4933 42.4522 11.76C43.0389 12.0267 43.5322 12.4 43.9322 12.88C44.3322 13.36 44.6322 13.9333 44.8322 14.6C45.0455 15.2667 45.1522 16 45.1522 16.8C45.1522 17.64 45.0255 18.4 44.7722 19.08C44.5322 19.7467 44.1855 20.3133 43.7322 20.78C43.2789 21.2467 42.7322 21.6067 42.0922 21.86C41.4522 22.1133 40.7322 22.24 39.9322 22.24C39.0655 22.24 38.2989 22.18 37.6322 22.06C36.9655 21.94 36.4189 21.82 35.9922 21.7V6.8L37.8522 6.48V12.06ZM37.8522 20.38C38.0389 20.4333 38.2989 20.4867 38.6322 20.54C38.9789 20.58 39.4055 20.6 39.9122 20.6C40.9122 20.6 41.7122 20.2733 42.3122 19.62C42.9122 18.9533 43.2122 18.0133 43.2122 16.8C43.2122 16.2667 43.1589 15.7667 43.0522 15.3C42.9455 14.8333 42.7722 14.4333 42.5322 14.1C42.2922 13.7533 41.9789 13.4867 41.5922 13.3C41.2189 13.1 40.7655 13 40.2322 13C39.7255 13 39.2589 13.0867 38.8322 13.26C38.4055 13.4333 38.0789 13.6133 37.8522 13.8V20.38ZM48.2295 22H46.3695V11.6H48.2295V22ZM47.2895 9.72C46.9562 9.72 46.6695 9.61333 46.4295 9.4C46.2029 9.17333 46.0895 8.87333 46.0895 8.5C46.0895 8.12667 46.2029 7.83333 46.4295 7.62C46.6695 7.39333 46.9562 7.28 47.2895 7.28C47.6229 7.28 47.9029 7.39333 48.1295 7.62C48.3695 7.83333 48.4895 8.12667 48.4895 8.5C48.4895 8.87333 48.3695 9.17333 48.1295 9.4C47.9029 9.61333 47.6229 9.72 47.2895 9.72ZM51.8881 12.06C52.1148 11.9133 52.4548 11.76 52.9081 11.6C53.3748 11.44 53.9081 11.36 54.5081 11.36C55.2548 11.36 55.9148 11.4933 56.4881 11.76C57.0748 12.0267 57.5681 12.4 57.9681 12.88C58.3681 13.36 58.6681 13.9333 58.8681 14.6C59.0815 15.2667 59.1881 16 59.1881 16.8C59.1881 17.64 59.0615 18.4 58.8081 19.08C58.5681 19.7467 58.2215 20.3133 57.7681 20.78C57.3148 21.2467 56.7681 21.6067 56.1281 21.86C55.4881 22.1133 54.7681 22.24 53.9681 22.24C53.1015 22.24 52.3348 22.18 51.6681 22.06C51.0015 21.94 50.4548 21.82 50.0281 21.7V6.8L51.8881 6.48V12.06ZM51.8881 20.38C52.0748 20.4333 52.3348 20.4867 52.6681 20.54C53.0148 20.58 53.4415 20.6 53.9481 20.6C54.9481 20.6 55.7481 20.2733 56.3481 19.62C56.9481 18.9533 57.2481 18.0133 57.2481 16.8C57.2481 16.2667 57.1948 15.7667 57.0881 15.3C56.9815 14.8333 56.8081 14.4333 56.5681 14.1C56.3281 13.7533 56.0148 13.4867 55.6281 13.3C55.2548 13.1 54.8015 13 54.2681 13C53.7615 13 53.2948 13.0867 52.8681 13.26C52.4415 13.4333 52.1148 13.6133 51.8881 13.8V20.38ZM63.5255 22.2C62.3788 22.1733 61.5655 21.9267 61.0855 21.46C60.6055 20.9933 60.3655 20.2667 60.3655 19.28V6.8L62.2255 6.48V18.98C62.2255 19.2867 62.2521 19.54 62.3055 19.74C62.3588 19.94 62.4455 20.1 62.5655 20.22C62.6855 20.34 62.8455 20.4333 63.0455 20.5C63.2455 20.5533 63.4921 20.6 63.7855 20.64L63.5255 22.2ZM66.3342 22H64.4742V11.6H66.3342V22ZM65.3942 9.72C65.0609 9.72 64.7742 9.61333 64.5342 9.4C64.3076 9.17333 64.1942 8.87333 64.1942 8.5C64.1942 8.12667 64.3076 7.83333 64.5342 7.62C64.7742 7.39333 65.0609 7.28 65.3942 7.28C65.7276 7.28 66.0076 7.39333 66.2342 7.62C66.4742 7.83333 66.5942 8.12667 66.5942 8.5C66.5942 8.87333 66.4742 9.17333 66.2342 9.4C66.0076 9.61333 65.7276 9.72 65.3942 9.72ZM77.3128 16.8C77.3128 17.6267 77.1928 18.3733 76.9528 19.04C76.7128 19.7067 76.3728 20.28 75.9328 20.76C75.5061 21.24 74.9928 21.6133 74.3928 21.88C73.7928 22.1333 73.1395 22.26 72.4328 22.26C71.7261 22.26 71.0728 22.1333 70.4728 21.88C69.8728 21.6133 69.3528 21.24 68.9128 20.76C68.4861 20.28 68.1528 19.7067 67.9128 19.04C67.6728 18.3733 67.5528 17.6267 67.5528 16.8C67.5528 15.9867 67.6728 15.2467 67.9128 14.58C68.1528 13.9 68.4861 13.32 68.9128 12.84C69.3528 12.36 69.8728 11.9933 70.4728 11.74C71.0728 11.4733 71.7261 11.34 72.4328 11.34C73.1395 11.34 73.7928 11.4733 74.3928 11.74C74.9928 11.9933 75.5061 12.36 75.9328 12.84C76.3728 13.32 76.7128 13.9 76.9528 14.58C77.1928 15.2467 77.3128 15.9867 77.3128 16.8ZM75.3728 16.8C75.3728 15.6267 75.1061 14.7 74.5728 14.02C74.0528 13.3267 73.3395 12.98 72.4328 12.98C71.5261 12.98 70.8061 13.3267 70.2728 14.02C69.7528 14.7 69.4928 15.6267 69.4928 16.8C69.4928 17.9733 69.7528 18.9067 70.2728 19.6C70.8061 20.28 71.5261 20.62 72.4328 20.62C73.3395 20.62 74.0528 20.28 74.5728 19.6C75.1061 18.9067 75.3728 17.9733 75.3728 16.8ZM80.2697 11.6H84.2097V13.16H80.2697V17.96C80.2697 18.48 80.3097 18.9133 80.3897 19.26C80.4697 19.5933 80.5897 19.86 80.7497 20.06C80.9097 20.2467 81.1097 20.38 81.3497 20.46C81.5897 20.54 81.8697 20.58 82.1897 20.58C82.7497 20.58 83.1964 20.52 83.5297 20.4C83.8764 20.2667 84.1164 20.1733 84.2497 20.12L84.6097 21.66C84.423 21.7533 84.0964 21.8667 83.6297 22C83.163 22.1467 82.6297 22.22 82.0297 22.22C81.323 22.22 80.7364 22.1333 80.2697 21.96C79.8164 21.7733 79.4497 21.5 79.1697 21.14C78.8897 20.78 78.6897 20.34 78.5697 19.82C78.463 19.2867 78.4097 18.6733 78.4097 17.98V8.7L80.2697 8.38V11.6ZM84.4013 16.82C84.4013 15.9 84.5346 15.1 84.8013 14.42C85.0679 13.7267 85.4213 13.1533 85.8613 12.7C86.3013 12.2467 86.8079 11.9067 87.3813 11.68C87.9546 11.4533 88.5413 11.34 89.1413 11.34C90.5413 11.34 91.6146 11.78 92.3613 12.66C93.1079 13.5267 93.4813 14.8533 93.4813 16.64C93.4813 16.72 93.4813 16.8267 93.4813 16.96C93.4813 17.08 93.4746 17.1933 93.4613 17.3H86.3413C86.4213 18.38 86.7346 19.2 87.2813 19.76C87.8279 20.32 88.6813 20.6 89.8413 20.6C90.4946 20.6 91.0413 20.5467 91.4813 20.44C91.9346 20.32 92.2746 20.2067 92.5013 20.1L92.7613 21.66C92.5346 21.78 92.1346 21.9067 91.5613 22.04C91.0013 22.1733 90.3613 22.24 89.6413 22.24C88.7346 22.24 87.9479 22.1067 87.2813 21.84C86.6279 21.56 86.0879 21.18 85.6613 20.7C85.2346 20.22 84.9146 19.6533 84.7013 19C84.5013 18.3333 84.4013 17.6067 84.4013 16.82ZM91.5413 15.8C91.5546 14.96 91.3413 14.2733 90.9013 13.74C90.4746 13.1933 89.8813 12.92 89.1213 12.92C88.6946 12.92 88.3146 13.0067 87.9813 13.18C87.6613 13.34 87.3879 13.5533 87.1613 13.82C86.9346 14.0867 86.7546 14.3933 86.6213 14.74C86.5013 15.0867 86.4213 15.44 86.3813 15.8H91.5413ZM99.2731 22.24C98.4331 22.24 97.6931 22.1067 97.0531 21.84C96.4265 21.5733 95.8931 21.2 95.4531 20.72C95.0265 20.24 94.7065 19.6733 94.4931 19.02C94.2798 18.3533 94.1731 17.62 94.1731 16.82C94.1731 16.02 94.2865 15.2867 94.5131 14.62C94.7531 13.9533 95.0865 13.38 95.5131 12.9C95.9398 12.4067 96.4598 12.0267 97.0731 11.76C97.6998 11.48 98.3931 11.34 99.1531 11.34C99.6198 11.34 100.086 11.38 100.553 11.46C101.02 11.54 101.466 11.6667 101.893 11.84L101.473 13.42C101.193 13.2867 100.866 13.18 100.493 13.1C100.133 13.02 99.7465 12.98 99.3331 12.98C98.2931 12.98 97.4931 13.3067 96.9331 13.96C96.3865 14.6133 96.1131 15.5667 96.1131 16.82C96.1131 17.38 96.1731 17.8933 96.2931 18.36C96.4265 18.8267 96.6265 19.2267 96.8931 19.56C97.1731 19.8933 97.5265 20.1533 97.9531 20.34C98.3798 20.5133 98.8998 20.6 99.5131 20.6C100.006 20.6 100.453 20.5533 100.853 20.46C101.253 20.3667 101.566 20.2667 101.793 20.16L102.053 21.72C101.946 21.7867 101.793 21.8533 101.593 21.92C101.393 21.9733 101.166 22.02 100.913 22.06C100.66 22.1133 100.386 22.1533 100.093 22.18C99.8131 22.22 99.5398 22.24 99.2731 22.24ZM106.17 20.66C106.61 20.66 106.997 20.6533 107.33 20.64C107.677 20.6133 107.963 20.5733 108.19 20.52V17.42C108.057 17.3533 107.837 17.3 107.53 17.26C107.237 17.2067 106.877 17.18 106.45 17.18C106.17 17.18 105.87 17.2 105.55 17.24C105.243 17.28 104.957 17.3667 104.69 17.5C104.437 17.62 104.223 17.7933 104.05 18.02C103.877 18.2333 103.79 18.52 103.79 18.88C103.79 19.5467 104.003 20.0133 104.43 20.28C104.857 20.5333 105.437 20.66 106.17 20.66ZM106.01 11.34C106.757 11.34 107.383 11.44 107.89 11.64C108.41 11.8267 108.823 12.1 109.13 12.46C109.45 12.8067 109.677 13.2267 109.81 13.72C109.943 14.2 110.01 14.7333 110.01 15.32V21.82C109.85 21.8467 109.623 21.8867 109.33 21.94C109.05 21.98 108.73 22.02 108.37 22.06C108.01 22.1 107.617 22.1333 107.19 22.16C106.777 22.2 106.363 22.22 105.95 22.22C105.363 22.22 104.823 22.16 104.33 22.04C103.837 21.92 103.41 21.7333 103.05 21.48C102.69 21.2133 102.41 20.8667 102.21 20.44C102.01 20.0133 101.91 19.5 101.91 18.9C101.91 18.3267 102.023 17.8333 102.25 17.42C102.49 17.0067 102.81 16.6733 103.21 16.42C103.61 16.1667 104.077 15.98 104.61 15.86C105.143 15.74 105.703 15.68 106.29 15.68C106.477 15.68 106.67 15.6933 106.87 15.72C107.07 15.7333 107.257 15.76 107.43 15.8C107.617 15.8267 107.777 15.8533 107.91 15.88C108.043 15.9067 108.137 15.9267 108.19 15.94V15.42C108.19 15.1133 108.157 14.8133 108.09 14.52C108.023 14.2133 107.903 13.9467 107.73 13.72C107.557 13.48 107.317 13.2933 107.01 13.16C106.717 13.0133 106.33 12.94 105.85 12.94C105.237 12.94 104.697 12.9867 104.23 13.08C103.777 13.16 103.437 13.2467 103.21 13.34L102.99 11.8C103.23 11.6933 103.63 11.5933 104.19 11.5C104.75 11.3933 105.357 11.34 106.01 11.34Z" fill="#F6F8FA"/>
<path d="M113.899 20.92C113.899 21.28 113.779 21.5933 113.539 21.86C113.299 22.1267 112.973 22.26 112.559 22.26C112.146 22.26 111.819 22.1267 111.579 21.86C111.339 21.5933 111.219 21.28 111.219 20.92C111.219 20.56 111.339 20.2467 111.579 19.98C111.819 19.7133 112.146 19.58 112.559 19.58C112.973 19.58 113.299 19.7133 113.539 19.98C113.779 20.2467 113.899 20.56 113.899 20.92Z" fill="#8F00FF"/>
<path d="M117.561 16.66C117.561 17.58 117.768 18.32 118.181 18.88C118.594 19.44 119.208 19.72 120.021 19.72C120.288 19.72 120.534 19.7133 120.761 19.7C120.988 19.6733 121.174 19.6467 121.321 19.62V14.2C121.134 14.08 120.888 13.98 120.581 13.9C120.288 13.82 119.988 13.78 119.681 13.78C118.268 13.78 117.561 14.74 117.561 16.66ZM124.301 21.66C124.034 21.74 123.728 21.82 123.381 21.9C123.034 21.9667 122.668 22.0267 122.281 22.08C121.908 22.1333 121.521 22.1733 121.121 22.2C120.734 22.24 120.361 22.26 120.001 22.26C119.134 22.26 118.361 22.1333 117.681 21.88C117.001 21.6267 116.428 21.2667 115.961 20.8C115.494 20.32 115.134 19.7467 114.881 19.08C114.641 18.4 114.521 17.64 114.521 16.8C114.521 15.9467 114.628 15.18 114.841 14.5C115.054 13.8067 115.361 13.22 115.761 12.74C116.161 12.26 116.648 11.8933 117.221 11.64C117.808 11.3867 118.474 11.26 119.221 11.26C119.634 11.26 120.001 11.3 120.321 11.38C120.654 11.46 120.988 11.5733 121.321 11.72V6.96L124.301 6.48V21.66ZM128.671 22H125.691V11.48H128.671V22ZM128.951 8.44C128.951 8.98667 128.771 9.42 128.411 9.74C128.065 10.0467 127.651 10.2 127.171 10.2C126.691 10.2 126.271 10.0467 125.911 9.74C125.565 9.42 125.391 8.98667 125.391 8.44C125.391 7.89333 125.565 7.46667 125.911 7.16C126.271 6.84 126.691 6.68 127.171 6.68C127.651 6.68 128.065 6.84 128.411 7.16C128.771 7.46667 128.951 7.89333 128.951 8.44ZM132.613 16.4C132.613 18.0667 133.286 18.9 134.633 18.9C134.939 18.9 135.226 18.86 135.493 18.78C135.759 18.7 135.986 18.6067 136.173 18.5V13.74C136.026 13.7133 135.853 13.6933 135.653 13.68C135.453 13.6533 135.219 13.64 134.953 13.64C134.166 13.64 133.579 13.9 133.193 14.42C132.806 14.94 132.613 15.6 132.613 16.4ZM139.153 20.68C139.153 22.4 138.713 23.6733 137.833 24.5C136.966 25.34 135.619 25.76 133.793 25.76C133.153 25.76 132.513 25.7 131.873 25.58C131.233 25.4733 130.639 25.3267 130.093 25.14L130.613 22.64C131.079 22.8267 131.566 22.9733 132.073 23.08C132.593 23.1867 133.179 23.24 133.833 23.24C134.686 23.24 135.286 23.0533 135.633 22.68C135.993 22.3067 136.173 21.8267 136.173 21.24V20.86C135.853 21.0067 135.519 21.12 135.173 21.2C134.839 21.2667 134.473 21.3 134.073 21.3C132.619 21.3 131.506 20.8733 130.733 20.02C129.959 19.1533 129.573 17.9467 129.573 16.4C129.573 15.6267 129.693 14.9267 129.933 14.3C130.173 13.66 130.519 13.1133 130.973 12.66C131.439 12.2067 132.006 11.86 132.673 11.62C133.339 11.3667 134.093 11.24 134.933 11.24C135.293 11.24 135.659 11.26 136.033 11.3C136.419 11.3267 136.799 11.3667 137.173 11.42C137.546 11.4733 137.899 11.54 138.233 11.62C138.579 11.6867 138.886 11.76 139.153 11.84V20.68ZM143.528 22H140.548V11.48H143.528V22ZM143.808 8.44C143.808 8.98667 143.628 9.42 143.268 9.74C142.921 10.0467 142.508 10.2 142.028 10.2C141.548 10.2 141.128 10.0467 140.768 9.74C140.421 9.42 140.248 8.98667 140.248 8.44C140.248 7.89333 140.421 7.46667 140.768 7.16C141.128 6.84 141.548 6.68 142.028 6.68C142.508 6.68 142.921 6.84 143.268 7.16C143.628 7.46667 143.808 7.89333 143.808 8.44ZM144.829 8.86L147.809 8.38V11.48H151.389V13.96H147.809V17.66C147.809 18.2867 147.916 18.7867 148.129 19.16C148.356 19.5333 148.802 19.72 149.469 19.72C149.789 19.72 150.116 19.6933 150.449 19.64C150.796 19.5733 151.109 19.4867 151.389 19.38L151.809 21.7C151.449 21.8467 151.049 21.9733 150.609 22.08C150.169 22.1867 149.629 22.24 148.989 22.24C148.176 22.24 147.502 22.1333 146.969 21.92C146.436 21.6933 146.009 21.3867 145.689 21C145.369 20.6 145.142 20.12 145.009 19.56C144.889 19 144.829 18.38 144.829 17.7V8.86ZM156.045 19.92C156.338 19.92 156.618 19.9133 156.885 19.9C157.152 19.8867 157.365 19.8667 157.525 19.84V17.58C157.405 17.5533 157.225 17.5267 156.985 17.5C156.745 17.4733 156.525 17.46 156.325 17.46C156.045 17.46 155.778 17.48 155.525 17.52C155.285 17.5467 155.072 17.6067 154.885 17.7C154.698 17.7933 154.552 17.92 154.445 18.08C154.338 18.24 154.285 18.44 154.285 18.68C154.285 19.1467 154.438 19.4733 154.745 19.66C155.065 19.8333 155.498 19.92 156.045 19.92ZM155.805 11.2C156.685 11.2 157.418 11.3 158.005 11.5C158.592 11.7 159.058 11.9867 159.405 12.36C159.765 12.7333 160.018 13.1867 160.165 13.72C160.312 14.2533 160.385 14.8467 160.385 15.5V21.7C159.958 21.7933 159.365 21.9 158.605 22.02C157.845 22.1533 156.925 22.22 155.845 22.22C155.165 22.22 154.545 22.16 153.985 22.04C153.438 21.92 152.965 21.7267 152.565 21.46C152.165 21.18 151.858 20.82 151.645 20.38C151.432 19.94 151.325 19.4 151.325 18.76C151.325 18.1467 151.445 17.6267 151.685 17.2C151.938 16.7733 152.272 16.4333 152.685 16.18C153.098 15.9267 153.572 15.7467 154.105 15.64C154.638 15.52 155.192 15.46 155.765 15.46C156.152 15.46 156.492 15.48 156.785 15.52C157.092 15.5467 157.338 15.5867 157.525 15.64V15.36C157.525 14.8533 157.372 14.4467 157.065 14.14C156.758 13.8333 156.225 13.68 155.465 13.68C154.958 13.68 154.458 13.72 153.965 13.8C153.472 13.8667 153.045 13.9667 152.685 14.1L152.305 11.7C152.478 11.6467 152.692 11.5933 152.945 11.54C153.212 11.4733 153.498 11.42 153.805 11.38C154.112 11.3267 154.432 11.2867 154.765 11.26C155.112 11.22 155.458 11.2 155.805 11.2ZM165.88 22.2C165.013 22.1867 164.306 22.0933 163.76 21.92C163.226 21.7467 162.8 21.5067 162.48 21.2C162.173 20.88 161.96 20.5 161.84 20.06C161.733 19.6067 161.68 19.1 161.68 18.54V6.96L164.66 6.48V17.94C164.66 18.2067 164.68 18.4467 164.72 18.66C164.76 18.8733 164.833 19.0533 164.94 19.2C165.06 19.3467 165.226 19.4667 165.44 19.56C165.653 19.6533 165.94 19.7133 166.3 19.74L165.88 22.2Z" fill="white"/>
<path d="M20.4773 20.4657L5.07024 28.5536L5.80289 11.1879L20.4773 20.4657Z" fill="#8F00FF"/>
<circle cx="15.9093" cy="11.4461" r="10.035" transform="rotate(8.75915 15.9093 11.4461)" fill="#8F00FF"/>
<circle cx="16.181" cy="11.7178" r="6.68998" transform="rotate(8.75915 16.181 11.7178)" fill="white"/>
<circle cx="18.4379" cy="11.2987" r="3.34499" transform="rotate(-151.506 18.4379 11.2987)" fill="black"/>
<circle cx="18.4379" cy="11.2987" r="3.34499" transform="rotate(-151.506 18.4379 11.2987)" fill="#21232F"/>
<circle cx="20.1104" cy="9.62617" r="1.6725" fill="white"/>
<circle cx="20.1104" cy="9.62617" r="1.6725" fill="white"/>
</svg>
