<svg width="267" height="41" viewBox="0 0 267 41" fill="none" xmlns="http://www.w3.org/2000/svg">
<path d="M44.9273 15.8986C45.3173 15.6463 45.9023 15.3825 46.6822 15.1072C47.4851 14.8319 48.4027 14.6943 49.4349 14.6943C50.7196 14.6943 51.8551 14.9237 52.8415 15.3825C53.8508 15.8413 54.6996 16.4836 55.3877 17.3094C56.0759 18.1352 56.5921 19.1216 56.9362 20.2686C57.3032 21.4155 57.4867 22.6772 57.4867 24.0536C57.4867 25.4988 57.2688 26.8063 56.8329 27.9762C56.42 29.1232 55.8236 30.0981 55.0436 30.901C54.2637 31.7039 53.3232 32.3233 52.2221 32.7591C51.121 33.195 49.8823 33.4129 48.5059 33.4129C47.0148 33.4129 45.6958 33.3097 44.5488 33.1032C43.4019 32.8968 42.4613 32.6903 41.7273 32.4838V6.84898L44.9273 6.29843V15.8986ZM44.9273 30.2128C45.2485 30.3046 45.6958 30.3964 46.2693 30.4881C46.8657 30.5569 47.5998 30.5913 48.4715 30.5913C50.1919 30.5913 51.5683 30.0293 52.6006 28.9053C53.6329 27.7583 54.149 26.1411 54.149 24.0536C54.149 23.136 54.0572 22.2758 53.8737 21.4729C53.6902 20.67 53.392 19.9818 52.9791 19.4083C52.5662 18.8119 52.0271 18.3531 51.3619 18.032C50.7196 17.6879 49.9396 17.5158 49.022 17.5158C48.1503 17.5158 47.3475 17.6649 46.6134 17.9632C45.8793 18.2614 45.3173 18.5711 44.9273 18.8922V30.2128ZM62.7811 33H59.5811V15.1072H62.7811V33ZM61.1639 11.8727C60.5904 11.8727 60.0972 11.6892 59.6843 11.3222C59.2943 10.9322 59.0994 10.4161 59.0994 9.77376C59.0994 9.13146 59.2943 8.62679 59.6843 8.25976C60.0972 7.86978 60.5904 7.6748 61.1639 7.6748C61.7374 7.6748 62.2191 7.86978 62.6091 8.25976C63.022 8.62679 63.2285 9.13146 63.2285 9.77376C63.2285 10.4161 63.022 10.9322 62.6091 11.3222C62.2191 11.6892 61.7374 11.8727 61.1639 11.8727ZM69.0756 15.8986C69.4656 15.6463 70.0505 15.3825 70.8305 15.1072C71.6334 14.8319 72.5509 14.6943 73.5832 14.6943C74.8678 14.6943 76.0033 14.9237 76.9897 15.3825C77.9991 15.8413 78.8478 16.4836 79.536 17.3094C80.2242 18.1352 80.7403 19.1216 81.0844 20.2686C81.4515 21.4155 81.635 22.6772 81.635 24.0536C81.635 25.4988 81.4171 26.8063 80.9812 27.9762C80.5683 29.1232 79.9719 30.0981 79.1919 30.901C78.412 31.7039 77.4715 32.3233 76.3704 32.7591C75.2693 33.195 74.0305 33.4129 72.6542 33.4129C71.1631 33.4129 69.8441 33.3097 68.6971 33.1032C67.5501 32.8968 66.6096 32.6903 65.8756 32.4838V6.84898L69.0756 6.29843V15.8986ZM69.0756 30.2128C69.3968 30.3046 69.8441 30.3964 70.4176 30.4881C71.014 30.5569 71.7481 30.5913 72.6198 30.5913C74.3402 30.5913 75.7166 30.0293 76.7489 28.9053C77.7811 27.7583 78.2973 26.1411 78.2973 24.0536C78.2973 23.136 78.2055 22.2758 78.022 21.4729C77.8385 20.67 77.5403 19.9818 77.1274 19.4083C76.7145 18.8119 76.1754 18.3531 75.5101 18.032C74.8678 17.6879 74.0879 17.5158 73.1703 17.5158C72.2986 17.5158 71.4957 17.6649 70.7617 17.9632C70.0276 18.2614 69.4656 18.5711 69.0756 18.8922V30.2128ZM89.0972 33.3441C87.1244 33.2982 85.7251 32.8738 84.8993 32.0709C84.0735 31.2681 83.6606 30.0179 83.6606 28.3203V6.84898L86.8606 6.29843V27.8042C86.8606 28.3318 86.9065 28.7677 86.9982 29.1117C87.09 29.4558 87.2391 29.7311 87.4456 29.9376C87.652 30.144 87.9273 30.3046 88.2714 30.4193C88.6155 30.5111 89.0399 30.5913 89.5445 30.6602L89.0972 33.3441ZM93.9296 33H90.7295V15.1072H93.9296V33ZM92.3123 11.8727C91.7388 11.8727 91.2456 11.6892 90.8327 11.3222C90.4428 10.9322 90.2478 10.4161 90.2478 9.77376C90.2478 9.13146 90.4428 8.62679 90.8327 8.25976C91.2456 7.86978 91.7388 7.6748 92.3123 7.6748C92.8858 7.6748 93.3675 7.86978 93.7575 8.25976C94.1704 8.62679 94.3769 9.13146 94.3769 9.77376C94.3769 10.4161 94.1704 10.9322 93.7575 11.3222C93.3675 11.6892 92.8858 11.8727 92.3123 11.8727ZM112.818 24.0536C112.818 25.4758 112.611 26.7604 112.198 27.9074C111.786 29.0544 111.201 30.0408 110.444 30.8666C109.709 31.6924 108.826 32.3347 107.794 32.7935C106.762 33.2294 105.638 33.4473 104.422 33.4473C103.206 33.4473 102.082 33.2294 101.05 32.7935C100.018 32.3347 99.1229 31.6924 98.3659 30.8666C97.6319 30.0408 97.0584 29.0544 96.6455 27.9074C96.2326 26.7604 96.0261 25.4758 96.0261 24.0536C96.0261 22.6543 96.2326 21.3811 96.6455 20.2342C97.0584 19.0643 97.6319 18.0664 98.3659 17.2406C99.1229 16.4147 100.018 15.7839 101.05 15.3481C102.082 14.8893 103.206 14.6599 104.422 14.6599C105.638 14.6599 106.762 14.8893 107.794 15.3481C108.826 15.7839 109.709 16.4147 110.444 17.2406C111.201 18.0664 111.786 19.0643 112.198 20.2342C112.611 21.3811 112.818 22.6543 112.818 24.0536ZM109.48 24.0536C109.48 22.0349 109.021 20.4406 108.104 19.2707C107.209 18.0779 105.982 17.4814 104.422 17.4814C102.862 17.4814 101.623 18.0779 100.706 19.2707C99.8111 20.4406 99.3638 22.0349 99.3638 24.0536C99.3638 26.0723 99.8111 27.678 100.706 28.8709C101.623 30.0408 102.862 30.6257 104.422 30.6257C105.982 30.6257 107.209 30.0408 108.104 28.8709C109.021 27.678 109.48 26.0723 109.48 24.0536ZM117.905 15.1072H124.684V17.7911H117.905V26.0493C117.905 26.944 117.974 27.6895 118.111 28.2859C118.249 28.8594 118.456 29.3182 118.731 29.6623C119.006 29.9834 119.35 30.2128 119.763 30.3505C120.176 30.4881 120.658 30.5569 121.208 30.5569C122.172 30.5569 122.94 30.4537 123.514 30.2472C124.11 30.0179 124.523 29.8573 124.752 29.7655L125.372 32.415C125.051 32.5756 124.489 32.7706 123.686 33C122.883 33.2523 121.965 33.3785 120.933 33.3785C119.717 33.3785 118.708 33.2294 117.905 32.9312C117.125 32.61 116.494 32.1398 116.012 31.5204C115.531 30.901 115.187 30.144 114.98 29.2494C114.797 28.3318 114.705 27.2766 114.705 26.0837V10.1179L117.905 9.56731V15.1072ZM125.013 24.088C125.013 22.5052 125.243 21.1288 125.701 19.9589C126.16 18.766 126.768 17.7796 127.525 16.9997C128.282 16.2198 129.154 15.6348 130.14 15.2448C131.127 14.8549 132.136 14.6599 133.168 14.6599C135.577 14.6599 137.423 15.4169 138.708 16.9309C139.993 18.4219 140.635 20.7044 140.635 23.7783C140.635 23.916 140.635 24.0995 140.635 24.3289C140.635 24.5353 140.623 24.7303 140.601 24.9138H128.351C128.489 26.7719 129.028 28.1827 129.968 29.1462C130.909 30.1096 132.377 30.5913 134.372 30.5913C135.497 30.5913 136.437 30.4996 137.194 30.3161C137.974 30.1096 138.559 29.9146 138.949 29.7311L139.396 32.415C139.006 32.6215 138.318 32.8394 137.332 33.0688C136.368 33.2982 135.267 33.4129 134.028 33.4129C132.469 33.4129 131.115 33.1835 129.968 32.7247C128.844 32.243 127.915 31.5892 127.181 30.7634C126.447 29.9376 125.896 28.9626 125.529 27.8386C125.185 26.6916 125.013 25.4414 125.013 24.088ZM137.297 22.3331C137.32 20.8879 136.953 19.7066 136.196 18.789C135.462 17.8485 134.441 17.3782 133.134 17.3782C132.4 17.3782 131.746 17.5273 131.172 17.8255C130.622 18.1008 130.152 18.4678 129.762 18.9266C129.372 19.3854 129.062 19.913 128.833 20.5094C128.626 21.1059 128.489 21.7138 128.42 22.3331H137.297ZM150.6 33.4129C149.154 33.4129 147.881 33.1835 146.78 32.7247C145.702 32.2659 144.784 31.6236 144.027 30.7978C143.293 29.972 142.743 28.997 142.376 27.873C142.009 26.726 141.825 25.4644 141.825 24.088C141.825 22.7116 142.02 21.45 142.41 20.303C142.823 19.156 143.397 18.1696 144.131 17.3438C144.865 16.495 145.759 15.8413 146.815 15.3825C147.893 14.9007 149.086 14.6599 150.393 14.6599C151.196 14.6599 151.999 14.7287 152.802 14.8663C153.605 15.004 154.373 15.2219 155.107 15.5201L154.385 18.2384C153.903 18.009 153.341 17.8255 152.699 17.6879C152.079 17.5502 151.414 17.4814 150.703 17.4814C148.914 17.4814 147.537 18.0434 146.574 19.1675C145.633 20.2915 145.163 21.9317 145.163 24.088C145.163 25.0515 145.266 25.9346 145.473 26.7375C145.702 27.5404 146.046 28.2286 146.505 28.8021C146.987 29.3755 147.595 29.8229 148.329 30.144C149.063 30.4422 149.957 30.5913 151.013 30.5913C151.861 30.5913 152.63 30.5111 153.318 30.3505C154.006 30.1899 154.545 30.0179 154.935 29.8343L155.383 32.5183C155.199 32.633 154.935 32.7477 154.591 32.8623C154.247 32.9541 153.857 33.0344 153.421 33.1032C152.985 33.195 152.515 33.2638 152.01 33.3097C151.529 33.3785 151.058 33.4129 150.6 33.4129ZM162.465 30.6946C163.222 30.6946 163.888 30.6831 164.461 30.6602C165.058 30.6143 165.551 30.5455 165.941 30.4537V25.1203C165.711 25.0056 165.333 24.9138 164.805 24.845C164.301 24.7532 163.681 24.7074 162.947 24.7074C162.465 24.7074 161.949 24.7418 161.399 24.8106C160.871 24.8794 160.378 25.0285 159.919 25.2579C159.483 25.4644 159.116 25.7626 158.818 26.1525C158.52 26.5196 158.371 27.0128 158.371 27.6321C158.371 28.7791 158.738 29.582 159.472 30.0408C160.206 30.4766 161.204 30.6946 162.465 30.6946ZM162.19 14.6599C163.475 14.6599 164.553 14.8319 165.425 15.176C166.319 15.4972 167.03 15.9674 167.558 16.5868C168.109 17.1832 168.499 17.9058 168.728 18.7546C168.957 19.5804 169.072 20.498 169.072 21.5073V32.6903C168.797 32.7362 168.407 32.805 167.902 32.8968C167.42 32.9656 166.87 33.0344 166.25 33.1032C165.631 33.172 164.954 33.2294 164.22 33.2753C163.509 33.3441 162.798 33.3785 162.087 33.3785C161.078 33.3785 160.149 33.2753 159.3 33.0688C158.451 32.8623 157.717 32.5412 157.098 32.1053C156.478 31.6466 155.997 31.0501 155.652 30.3161C155.308 29.582 155.136 28.6988 155.136 27.6666C155.136 26.6802 155.331 25.8314 155.721 25.1203C156.134 24.4091 156.685 23.8357 157.373 23.3998C158.061 22.964 158.864 22.6428 159.782 22.4364C160.699 22.2299 161.663 22.1267 162.672 22.1267C162.993 22.1267 163.326 22.1496 163.67 22.1955C164.014 22.2184 164.335 22.2643 164.633 22.3331C164.954 22.379 165.23 22.4249 165.459 22.4708C165.688 22.5166 165.849 22.5511 165.941 22.574V21.6794C165.941 21.1517 165.883 20.6356 165.769 20.1309C165.654 19.6033 165.448 19.1445 165.149 18.7546C164.851 18.3417 164.438 18.0205 163.911 17.7911C163.406 17.5388 162.741 17.4126 161.915 17.4126C160.86 17.4126 159.931 17.4929 159.128 17.6535C158.348 17.7911 157.763 17.9402 157.373 18.1008L156.994 15.4513C157.407 15.2678 158.095 15.0957 159.059 14.9351C160.022 14.7516 161.066 14.6599 162.19 14.6599Z" fill="#21232F"/>
<path d="M175.763 31.1419C175.763 31.7613 175.557 32.3003 175.144 32.7591C174.731 33.2179 174.169 33.4473 173.458 33.4473C172.747 33.4473 172.185 33.2179 171.772 32.7591C171.359 32.3003 171.152 31.7613 171.152 31.1419C171.152 30.5225 171.359 29.9834 171.772 29.5247C172.185 29.0659 172.747 28.8365 173.458 28.8365C174.169 28.8365 174.731 29.0659 175.144 29.5247C175.557 29.9834 175.763 30.5225 175.763 31.1419Z" fill="#7B2CBF"/>
<path d="M182.063 23.8127C182.063 25.3955 182.419 26.6687 183.13 27.6321C183.841 28.5956 184.896 29.0773 186.296 29.0773C186.755 29.0773 187.179 29.0659 187.569 29.0429C187.959 28.997 188.28 28.9512 188.532 28.9053V19.5804C188.211 19.3739 187.787 19.2019 187.259 19.0643C186.755 18.9266 186.238 18.8578 185.711 18.8578C183.279 18.8578 182.063 20.5094 182.063 23.8127ZM193.659 32.415C193.201 32.5527 192.673 32.6903 192.076 32.8279C191.48 32.9426 190.849 33.0459 190.184 33.1376C189.542 33.2294 188.876 33.2982 188.188 33.3441C187.523 33.4129 186.881 33.4473 186.261 33.4473C184.77 33.4473 183.44 33.2294 182.27 32.7935C181.1 32.3577 180.114 31.7383 179.311 30.9354C178.508 30.1096 177.888 29.1232 177.453 27.9762C177.04 26.8063 176.833 25.4988 176.833 24.0536C176.833 22.5855 177.017 21.2664 177.384 20.0965C177.751 18.9037 178.278 17.8943 178.967 17.0685C179.655 16.2427 180.492 15.6119 181.478 15.176C182.488 14.7402 183.635 14.5222 184.919 14.5222C185.63 14.5222 186.261 14.5911 186.812 14.7287C187.385 14.8663 187.959 15.0613 188.532 15.3136V7.12425L193.659 6.29843V32.415ZM201.178 33H196.051V14.9007H201.178V33ZM201.66 9.67053C201.66 10.6111 201.35 11.3566 200.731 11.9071C200.135 12.4347 199.423 12.6985 198.598 12.6985C197.772 12.6985 197.049 12.4347 196.43 11.9071C195.833 11.3566 195.535 10.6111 195.535 9.67053C195.535 8.73002 195.833 7.99595 196.43 7.46834C197.049 6.9178 197.772 6.64252 198.598 6.64252C199.423 6.64252 200.135 6.9178 200.731 7.46834C201.35 7.99595 201.66 8.73002 201.66 9.67053ZM207.959 23.3654C207.959 26.2328 209.117 27.6666 211.434 27.6666C211.962 27.6666 212.455 27.5977 212.914 27.4601C213.373 27.3225 213.763 27.1619 214.084 26.9784V18.789C213.832 18.7431 213.533 18.7087 213.189 18.6857C212.845 18.6399 212.444 18.6169 211.985 18.6169C210.631 18.6169 209.622 19.0643 208.957 19.9589C208.292 20.8535 207.959 21.989 207.959 23.3654ZM219.211 30.729C219.211 33.6882 218.454 35.8789 216.94 37.3011C215.449 38.7463 213.132 39.4689 209.989 39.4689C208.888 39.4689 207.787 39.3657 206.686 39.1592C205.585 38.9757 204.564 38.7234 203.623 38.4022L204.518 34.1011C205.321 34.4222 206.158 34.6746 207.03 34.8581C207.925 35.0416 208.934 35.1334 210.058 35.1334C211.526 35.1334 212.558 34.8122 213.155 34.1699C213.774 33.5276 214.084 32.7018 214.084 31.6924V31.0387C213.533 31.291 212.96 31.486 212.363 31.6236C211.79 31.7383 211.159 31.7957 210.471 31.7957C207.97 31.7957 206.055 31.0616 204.725 29.5935C203.394 28.1024 202.729 26.0264 202.729 23.3654C202.729 22.0349 202.935 20.8306 203.348 19.7524C203.761 18.6513 204.358 17.7108 205.137 16.9309C205.94 16.1509 206.915 15.5545 208.062 15.1416C209.209 14.7057 210.505 14.4878 211.95 14.4878C212.57 14.4878 213.201 14.5222 213.843 14.5911C214.508 14.6369 215.162 14.7057 215.804 14.7975C216.447 14.8893 217.055 15.004 217.628 15.1416C218.224 15.2563 218.752 15.3825 219.211 15.5201V30.729ZM226.738 33H221.611V14.9007H226.738V33ZM227.22 9.67053C227.22 10.6111 226.91 11.3566 226.291 11.9071C225.694 12.4347 224.983 12.6985 224.157 12.6985C223.331 12.6985 222.609 12.4347 221.989 11.9071C221.393 11.3566 221.095 10.6111 221.095 9.67053C221.095 8.73002 221.393 7.99595 221.989 7.46834C222.609 6.9178 223.331 6.64252 224.157 6.64252C224.983 6.64252 225.694 6.9178 226.291 7.46834C226.91 7.99595 227.22 8.73002 227.22 9.67053ZM228.977 10.3931L234.104 9.56731V14.9007H240.263V19.1675H234.104V25.5332C234.104 26.6113 234.287 27.4716 234.654 28.1139C235.044 28.7562 235.813 29.0773 236.96 29.0773C237.51 29.0773 238.072 29.0315 238.646 28.9397C239.242 28.825 239.781 28.6759 240.263 28.4924L240.985 32.4838C240.366 32.7362 239.678 32.9541 238.921 33.1376C238.164 33.3211 237.235 33.4129 236.134 33.4129C234.734 33.4129 233.576 33.2294 232.658 32.8623C231.741 32.4724 231.007 31.9448 230.456 31.2795C229.906 30.5913 229.516 29.7655 229.286 28.8021C229.08 27.8386 228.977 26.7719 228.977 25.602V10.3931ZM248.273 29.4214C248.778 29.4214 249.26 29.41 249.719 29.387C250.177 29.3641 250.544 29.3297 250.82 29.2838V25.3955C250.613 25.3497 250.304 25.3038 249.891 25.2579C249.478 25.212 249.099 25.1891 248.755 25.1891C248.273 25.1891 247.815 25.2235 247.379 25.2923C246.966 25.3382 246.599 25.4414 246.278 25.602C245.957 25.7626 245.704 25.9805 245.521 26.2558C245.337 26.5311 245.245 26.8751 245.245 27.2881C245.245 28.0909 245.509 28.653 246.037 28.9741C246.587 29.2723 247.333 29.4214 248.273 29.4214ZM247.861 14.419C249.375 14.419 250.636 14.5911 251.646 14.9351C252.655 15.2792 253.458 15.7724 254.054 16.4147C254.674 17.057 255.109 17.837 255.362 18.7546C255.614 19.6721 255.74 20.693 255.74 21.817V32.4838C255.006 32.6444 253.985 32.8279 252.678 33.0344C251.37 33.2638 249.787 33.3785 247.929 33.3785C246.759 33.3785 245.693 33.2753 244.729 33.0688C243.789 32.8623 242.974 32.5297 242.286 32.0709C241.598 31.5892 241.07 30.9698 240.703 30.2128C240.336 29.4558 240.153 28.5268 240.153 27.4257C240.153 26.3705 240.359 25.4758 240.772 24.7418C241.208 24.0077 241.782 23.4228 242.493 22.9869C243.204 22.5511 244.018 22.2414 244.936 22.0579C245.853 21.8514 246.805 21.7482 247.792 21.7482C248.457 21.7482 249.042 21.7826 249.547 21.8514C250.074 21.8973 250.499 21.9661 250.82 22.0579V21.5761C250.82 20.7044 250.556 20.0048 250.028 19.4772C249.501 18.9496 248.583 18.6857 247.276 18.6857C246.404 18.6857 245.544 18.7546 244.695 18.8922C243.846 19.0069 243.112 19.1789 242.493 19.4083L241.839 15.2792C242.137 15.1875 242.504 15.0957 242.94 15.004C243.399 14.8893 243.892 14.7975 244.42 14.7287C244.947 14.6369 245.498 14.5681 246.071 14.5222C246.668 14.4534 247.264 14.419 247.861 14.419ZM265.194 33.3441C263.703 33.3211 262.487 33.1606 261.546 32.8623C260.629 32.5641 259.895 32.1512 259.344 31.6236C258.816 31.0731 258.449 30.4193 258.243 29.6623C258.059 28.8823 257.968 28.0106 257.968 27.0472V7.12425L263.095 6.29843V26.0149C263.095 26.4737 263.129 26.8866 263.198 27.2536C263.267 27.6207 263.393 27.9304 263.576 28.1827C263.783 28.435 264.07 28.6415 264.437 28.8021C264.804 28.9626 265.297 29.0659 265.916 29.1117L265.194 33.3441Z" fill="black"/>
<path d="M26.3307 27.176L6.51956 37.5758L7.46164 15.2462L26.3307 27.176Z" fill="#8234e9"/>
<circle cx="20.457" cy="15.5781" r="12.9035" transform="rotate(8.75915 20.457 15.5781)" fill="#8234e9"/>
<circle cx="20.8064" cy="15.9275" r="8.60231" transform="rotate(8.75915 20.8064 15.9275)" fill="white"/>
<circle cx="23.7084" cy="15.3886" r="4.30115" transform="rotate(-151.506 23.7084 15.3886)" fill="black"/>
<circle cx="23.7084" cy="15.3886" r="4.30115" transform="rotate(-151.506 23.7084 15.3886)" fill="#21232F"/>
<circle cx="25.8589" cy="13.238" r="2.15058" fill="white"/>
<circle cx="25.8589" cy="13.238" r="2.15058" fill="white"/>
</svg>
