<svg width="225" height="34" viewBox="0 0 225 34" fill="none" xmlns="http://www.w3.org/2000/svg">
<path d="M3.2169 9.89862C3.60687 9.64628 4.19183 9.38248 4.97177 9.10721C5.77465 8.83193 6.69223 8.6943 7.72451 8.6943C9.00912 8.6943 10.1446 8.92369 11.131 9.38248C12.1404 9.84127 12.9891 10.4836 13.6773 11.3094C14.3655 12.1352 14.8816 13.1216 15.2257 14.2686C15.5928 15.4156 15.7763 16.6772 15.7763 18.0536C15.7763 19.4988 15.5583 20.8063 15.1225 21.9763C14.7096 23.1232 14.1132 24.0982 13.3332 24.901C12.5533 25.7039 11.6128 26.3233 10.5117 26.7591C9.41056 27.195 8.17183 27.4129 6.79546 27.4129C5.3044 27.4129 3.98538 27.3097 2.8384 27.1032C1.69143 26.8968 0.750909 26.6903 0.0168457 26.4839V0.848993L3.2169 0.298447V9.89862ZM3.2169 24.2129C3.53806 24.3046 3.98538 24.3964 4.55886 24.4881C5.15529 24.5569 5.88935 24.5914 6.76105 24.5914C8.48151 24.5914 9.85788 24.0293 10.8902 22.9053C11.9224 21.7583 12.4386 20.1411 12.4386 18.0536C12.4386 17.136 12.3468 16.2758 12.1633 15.4729C11.9798 14.67 11.6816 13.9818 11.2687 13.4084C10.8557 12.8119 10.3167 12.3531 9.65143 12.032C9.00912 11.6879 8.22918 11.5159 7.3116 11.5159C6.4399 11.5159 5.63702 11.665 4.90296 11.9632C4.16889 12.2614 3.60687 12.5711 3.2169 12.8922V24.2129Z" fill="#21232F"/>
<path d="M21.0707 27H17.8707V9.10721H21.0707V27ZM19.4535 5.87274C18.88 5.87274 18.3868 5.68922 17.9739 5.32219C17.5839 4.93222 17.3889 4.41608 17.3889 3.77378C17.3889 3.13147 17.5839 2.6268 17.9739 2.25977C18.3868 1.8698 18.88 1.67481 19.4535 1.67481C20.027 1.67481 20.5087 1.8698 20.8987 2.25977C21.3116 2.6268 21.518 3.13147 21.518 3.77378C21.518 4.41608 21.3116 4.93222 20.8987 5.32219C20.5087 5.68922 20.027 5.87274 19.4535 5.87274Z" fill="#21232F"/>
<path d="M27.3652 9.89862C27.7552 9.64628 28.3401 9.38248 29.1201 9.10721C29.9229 8.83193 30.8405 8.6943 31.8728 8.6943C33.1574 8.6943 34.2929 8.92369 35.2793 9.38248C36.2886 9.84127 37.1374 10.4836 37.8256 11.3094C38.5138 12.1352 39.0299 13.1216 39.374 14.2686C39.741 15.4156 39.9245 16.6772 39.9245 18.0536C39.9245 19.4988 39.7066 20.8063 39.2708 21.9763C38.8579 23.1232 38.2614 24.0982 37.4815 24.901C36.7016 25.7039 35.761 26.3233 34.6599 26.7591C33.5588 27.195 32.3201 27.4129 30.9437 27.4129C29.4527 27.4129 28.1337 27.3097 26.9867 27.1032C25.8397 26.8968 24.8992 26.6903 24.1651 26.4839V0.848993L27.3652 0.298447V9.89862ZM27.3652 24.2129C27.6863 24.3046 28.1337 24.3964 28.7071 24.4881C29.3036 24.5569 30.0376 24.5914 30.9093 24.5914C32.6298 24.5914 34.0062 24.0293 35.0384 22.9053C36.0707 21.7583 36.5869 20.1411 36.5869 18.0536C36.5869 17.136 36.4951 16.2758 36.3116 15.4729C36.1281 14.67 35.8299 13.9818 35.4169 13.4084C35.004 12.8119 34.465 12.3531 33.7997 12.032C33.1574 11.6879 32.3775 11.5159 31.4599 11.5159C30.5882 11.5159 29.7853 11.665 29.0512 11.9632C28.3172 12.2614 27.7552 12.5711 27.3652 12.8922V24.2129Z" fill="#21232F"/>
<path d="M47.3868 27.3441C45.414 27.2982 44.0147 26.8738 43.1889 26.071C42.363 25.2681 41.9501 24.0179 41.9501 22.3203V0.848993L45.1502 0.298447V21.8042C45.1502 22.3318 45.1961 22.7677 45.2878 23.1118C45.3796 23.4559 45.5287 23.7311 45.7351 23.9376C45.9416 24.144 46.2169 24.3046 46.561 24.4193C46.9051 24.5111 47.3294 24.5914 47.8341 24.6602L47.3868 27.3441Z" fill="#21232F"/>
<path d="M52.2191 27H49.0191V9.10721H52.2191V27ZM50.6019 5.87274C50.0284 5.87274 49.5352 5.68922 49.1223 5.32219C48.7323 4.93222 48.5373 4.41608 48.5373 3.77378C48.5373 3.13147 48.7323 2.6268 49.1223 2.25977C49.5352 1.8698 50.0284 1.67481 50.6019 1.67481C51.1754 1.67481 51.6571 1.8698 52.0471 2.25977C52.46 2.6268 52.6664 3.13147 52.6664 3.77378C52.6664 4.41608 52.46 4.93222 52.0471 5.32219C51.6571 5.68922 51.1754 5.87274 50.6019 5.87274Z" fill="#21232F"/>
<path d="M71.1074 18.0536C71.1074 19.4758 70.9009 20.7605 70.488 21.9074C70.0751 23.0544 69.4901 24.0408 68.7331 24.8666C67.9991 25.6924 67.1159 26.3348 66.0836 26.7935C65.0513 27.2294 63.9273 27.4473 62.7115 27.4473C61.4957 27.4473 60.3717 27.2294 59.3394 26.7935C58.3071 26.3348 57.4125 25.6924 56.6555 24.8666C55.9214 24.0408 55.3479 23.0544 54.935 21.9074C54.5221 20.7605 54.3157 19.4758 54.3157 18.0536C54.3157 16.6543 54.5221 15.3812 54.935 14.2342C55.3479 13.0643 55.9214 12.0664 56.6555 11.2406C57.4125 10.4148 58.3071 9.78392 59.3394 9.34807C60.3717 8.88928 61.4957 8.65989 62.7115 8.65989C63.9273 8.65989 65.0513 8.88928 66.0836 9.34807C67.1159 9.78392 67.9991 10.4148 68.7331 11.2406C69.4901 12.0664 70.0751 13.0643 70.488 14.2342C70.9009 15.3812 71.1074 16.6543 71.1074 18.0536ZM67.7697 18.0536C67.7697 16.0349 67.3109 14.4406 66.3933 13.2707C65.4987 12.0779 64.2714 11.4814 62.7115 11.4814C61.1516 11.4814 59.9129 12.0779 58.9953 13.2707C58.1007 14.4406 57.6534 16.0349 57.6534 18.0536C57.6534 20.0723 58.1007 21.678 58.9953 22.8709C59.9129 24.0408 61.1516 24.6258 62.7115 24.6258C64.2714 24.6258 65.4987 24.0408 66.3933 22.8709C67.3109 21.678 67.7697 20.0723 67.7697 18.0536Z" fill="#21232F"/>
<path d="M76.1945 9.10721H82.9732V11.7911H76.1945V20.0493C76.1945 20.944 76.2634 21.6895 76.401 22.2859C76.5386 22.8594 76.7451 23.3182 77.0204 23.6623C77.2956 23.9835 77.6397 24.2129 78.0527 24.3505C78.4656 24.4881 78.9473 24.5569 79.4978 24.5569C80.4613 24.5569 81.2298 24.4537 81.8033 24.2473C82.3997 24.0179 82.8126 23.8573 83.042 23.7655L83.6614 26.415C83.3402 26.5756 82.7782 26.7706 81.9753 27C81.1724 27.2523 80.2548 27.3785 79.2226 27.3785C78.0068 27.3785 76.9974 27.2294 76.1945 26.9312C75.4146 26.61 74.7838 26.1398 74.302 25.5204C73.8203 24.901 73.4762 24.144 73.2698 23.2494C73.0863 22.3318 72.9945 21.2766 72.9945 20.0837V4.11787L76.1945 3.56732V9.10721Z" fill="#21232F"/>
<path d="M83.3027 18.088C83.3027 16.5052 83.5321 15.1288 83.9909 13.9589C84.4497 12.7661 85.0576 11.7797 85.8146 10.9997C86.5716 10.2198 87.4433 9.63481 88.4297 9.24484C89.4161 8.85487 90.4255 8.65989 91.4577 8.65989C93.8664 8.65989 95.713 9.41689 96.9976 10.9309C98.2822 12.422 98.9245 14.7044 98.9245 17.7783C98.9245 17.916 98.9245 18.0995 98.9245 18.3289C98.9245 18.5353 98.9131 18.7303 98.8901 18.9138H86.6404C86.7781 20.7719 87.3172 22.1827 88.2577 23.1462C89.1982 24.1096 90.6663 24.5914 92.6621 24.5914C93.7861 24.5914 94.7266 24.4996 95.4836 24.3161C96.2636 24.1096 96.8485 23.9146 97.2385 23.7311L97.6858 26.415C97.2958 26.6215 96.6076 26.8394 95.6212 27.0688C94.6578 27.2982 93.5567 27.4129 92.318 27.4129C90.7581 27.4129 89.4046 27.1835 88.2577 26.7247C87.1336 26.243 86.2046 25.5892 85.4705 24.7634C84.7365 23.9376 84.1859 22.9627 83.8189 21.8386C83.4748 20.6916 83.3027 19.4414 83.3027 18.088ZM95.5868 16.3331C95.6098 14.888 95.2427 13.7066 94.4857 12.789C93.7517 11.8485 92.7309 11.3782 91.4233 11.3782C90.6893 11.3782 90.0355 11.5273 89.462 11.8255C88.9115 12.1008 88.4412 12.4678 88.0512 12.9266C87.6612 13.3854 87.3516 13.913 87.1222 14.5095C86.9157 15.1059 86.7781 15.7138 86.7093 16.3331H95.5868Z" fill="#21232F"/>
<path d="M108.889 27.4129C107.444 27.4129 106.171 27.1835 105.07 26.7247C103.992 26.2659 103.074 25.6236 102.317 24.7978C101.583 23.972 101.032 22.9971 100.665 21.873C100.298 20.7261 100.115 19.4644 100.115 18.088C100.115 16.7116 100.31 15.45 100.7 14.303C101.113 13.156 101.686 12.1696 102.42 11.3438C103.154 10.495 104.049 9.84127 105.104 9.38248C106.182 8.90075 107.375 8.65989 108.683 8.65989C109.486 8.65989 110.289 8.7287 111.091 8.86634C111.894 9.00398 112.663 9.2219 113.397 9.52012L112.674 12.2384C112.193 12.0091 111.63 11.8255 110.988 11.6879C110.369 11.5503 109.704 11.4814 108.992 11.4814C107.203 11.4814 105.827 12.0435 104.863 13.1675C103.923 14.2915 103.453 15.9317 103.453 18.088C103.453 19.0515 103.556 19.9346 103.762 20.7375C103.992 21.5404 104.336 22.2286 104.795 22.8021C105.276 23.3756 105.884 23.8229 106.618 24.144C107.352 24.4422 108.247 24.5914 109.302 24.5914C110.151 24.5914 110.919 24.5111 111.608 24.3505C112.296 24.1899 112.835 24.0179 113.225 23.8344L113.672 26.5183C113.489 26.633 113.225 26.7477 112.881 26.8624C112.537 26.9541 112.147 27.0344 111.711 27.1032C111.275 27.195 110.805 27.2638 110.3 27.3097C109.818 27.3785 109.348 27.4129 108.889 27.4129Z" fill="#21232F"/>
<path d="M120.755 24.6946C121.512 24.6946 122.177 24.6831 122.751 24.6602C123.347 24.6143 123.84 24.5455 124.23 24.4537V19.1203C124.001 19.0056 123.622 18.9138 123.095 18.845C122.59 18.7533 121.971 18.7074 121.237 18.7074C120.755 18.7074 120.239 18.7418 119.688 18.8106C119.161 18.8794 118.668 19.0285 118.209 19.2579C117.773 19.4644 117.406 19.7626 117.108 20.1526C116.809 20.5196 116.66 21.0128 116.66 21.6322C116.66 22.7791 117.027 23.582 117.761 24.0408C118.495 24.4767 119.493 24.6946 120.755 24.6946ZM120.48 8.65989C121.764 8.65989 122.843 8.83193 123.714 9.17603C124.609 9.49718 125.32 9.96744 125.848 10.5868C126.398 11.1832 126.788 11.9058 127.018 12.7546C127.247 13.5804 127.362 14.498 127.362 15.5073V26.6903C127.086 26.7362 126.696 26.805 126.192 26.8968C125.71 26.9656 125.159 27.0344 124.54 27.1032C123.921 27.172 123.244 27.2294 122.51 27.2753C121.799 27.3441 121.088 27.3785 120.377 27.3785C119.367 27.3785 118.438 27.2753 117.589 27.0688C116.741 26.8624 116.007 26.5412 115.387 26.1054C114.768 25.6466 114.286 25.0501 113.942 24.3161C113.598 23.582 113.426 22.6988 113.426 21.6666C113.426 20.6802 113.621 19.8314 114.011 19.1203C114.424 18.4092 114.974 17.8357 115.662 17.3998C116.351 16.964 117.154 16.6428 118.071 16.4364C118.989 16.2299 119.952 16.1267 120.961 16.1267C121.283 16.1267 121.615 16.1496 121.959 16.1955C122.303 16.2184 122.625 16.2643 122.923 16.3331C123.244 16.379 123.519 16.4249 123.749 16.4708C123.978 16.5167 124.139 16.5511 124.23 16.574V15.6794C124.23 15.1518 124.173 14.6356 124.058 14.131C123.944 13.6033 123.737 13.1446 123.439 12.7546C123.141 12.3417 122.728 12.0205 122.2 11.7911C121.696 11.5388 121.03 11.4126 120.204 11.4126C119.149 11.4126 118.22 11.4929 117.417 11.6535C116.637 11.7911 116.052 11.9402 115.662 12.1008L115.284 9.4513C115.697 9.26778 116.385 9.09574 117.349 8.93516C118.312 8.75164 119.356 8.65989 120.48 8.65989Z" fill="#21232F"/>
<path d="M134.053 25.1419C134.053 25.7613 133.846 26.3003 133.433 26.7591C133.021 27.2179 132.459 27.4473 131.747 27.4473C131.036 27.4473 130.474 27.2179 130.061 26.7591C129.648 26.3003 129.442 25.7613 129.442 25.1419C129.442 24.5225 129.648 23.9835 130.061 23.5247C130.474 23.0659 131.036 22.8365 131.747 22.8365C132.459 22.8365 133.021 23.0659 133.433 23.5247C133.846 23.9835 134.053 24.5225 134.053 25.1419Z" fill="#8234E9"/>
<path d="M140.353 17.8127C140.353 19.3956 140.709 20.6687 141.42 21.6322C142.131 22.5956 143.186 23.0773 144.585 23.0773C145.044 23.0773 145.468 23.0659 145.858 23.0429C146.248 22.9971 146.57 22.9512 146.822 22.9053V13.5804C146.501 13.3739 146.076 13.2019 145.549 13.0643C145.044 12.9266 144.528 12.8578 144 12.8578C141.569 12.8578 140.353 14.5095 140.353 17.8127ZM151.949 26.415C151.49 26.5527 150.962 26.6903 150.366 26.828C149.77 26.9427 149.139 27.0459 148.474 27.1376C147.831 27.2294 147.166 27.2982 146.478 27.3441C145.813 27.4129 145.17 27.4473 144.551 27.4473C143.06 27.4473 141.729 27.2294 140.559 26.7935C139.39 26.3577 138.403 25.7383 137.6 24.9354C136.797 24.1096 136.178 23.1232 135.742 21.9763C135.329 20.8063 135.123 19.4988 135.123 18.0536C135.123 16.5855 135.306 15.2665 135.673 14.0965C136.04 12.9037 136.568 11.8944 137.256 11.0685C137.944 10.2427 138.782 9.61188 139.768 9.17603C140.777 8.74018 141.924 8.52225 143.209 8.52225C143.92 8.52225 144.551 8.59107 145.101 8.72871C145.675 8.86634 146.248 9.06133 146.822 9.31366V1.12427L151.949 0.298447V26.415Z" fill="black"/>
<path d="M159.468 27H154.341V8.90075H159.468V27ZM159.95 3.67055C159.95 4.61107 159.64 5.3566 159.021 5.90715C158.424 6.43476 157.713 6.69856 156.887 6.69856C156.061 6.69856 155.339 6.43476 154.719 5.90715C154.123 5.3566 153.825 4.61107 153.825 3.67055C153.825 2.73003 154.123 1.99597 154.719 1.46836C155.339 0.917812 156.061 0.642539 156.887 0.642539C157.713 0.642539 158.424 0.917812 159.021 1.46836C159.64 1.99597 159.95 2.73003 159.95 3.67055Z" fill="black"/>
<path d="M166.249 17.3654C166.249 20.2329 167.407 21.6666 169.724 21.6666C170.252 21.6666 170.745 21.5978 171.204 21.4601C171.662 21.3225 172.052 21.1619 172.373 20.9784V12.789C172.121 12.7431 171.823 12.7087 171.479 12.6858C171.135 12.6399 170.733 12.6169 170.274 12.6169C168.921 12.6169 167.912 13.0643 167.246 13.9589C166.581 14.8535 166.249 15.9891 166.249 17.3654ZM177.5 24.729C177.5 27.6882 176.743 29.8789 175.229 31.3012C173.738 32.7463 171.421 33.4689 168.279 33.4689C167.178 33.4689 166.077 33.3657 164.975 33.1593C163.874 32.9757 162.854 32.7234 161.913 32.4022L162.808 28.1011C163.611 28.4222 164.448 28.6746 165.32 28.8581C166.214 29.0416 167.223 29.1334 168.348 29.1334C169.816 29.1334 170.848 28.8122 171.444 28.1699C172.064 27.5276 172.373 26.7018 172.373 25.6924V25.0387C171.823 25.291 171.249 25.486 170.653 25.6236C170.079 25.7383 169.449 25.7957 168.76 25.7957C166.26 25.7957 164.345 25.0616 163.014 23.5935C161.684 22.1024 161.018 20.0264 161.018 17.3654C161.018 16.0349 161.225 14.8306 161.638 13.7525C162.051 12.6514 162.647 11.7108 163.427 10.9309C164.23 10.151 165.205 9.55453 166.352 9.14161C167.499 8.70576 168.795 8.48784 170.24 8.48784C170.859 8.48784 171.49 8.52225 172.133 8.59107C172.798 8.63695 173.452 8.70576 174.094 8.79752C174.736 8.88928 175.344 9.00398 175.918 9.14161C176.514 9.25631 177.042 9.38248 177.5 9.52012V24.729Z" fill="black"/>
<path d="M185.027 27H179.9V8.90075H185.027V27ZM185.509 3.67055C185.509 4.61107 185.199 5.3566 184.58 5.90715C183.984 6.43476 183.273 6.69856 182.447 6.69856C181.621 6.69856 180.898 6.43476 180.279 5.90715C179.683 5.3566 179.384 4.61107 179.384 3.67055C179.384 2.73003 179.683 1.99597 180.279 1.46836C180.898 0.917812 181.621 0.642539 182.447 0.642539C183.273 0.642539 183.984 0.917812 184.58 1.46836C185.199 1.99597 185.509 2.73003 185.509 3.67055Z" fill="black"/>
<path d="M187.266 4.39314L192.393 3.56732V8.90075H198.552V13.1675H192.393V19.5332C192.393 20.6114 192.577 21.4716 192.944 22.1139C193.334 22.7562 194.102 23.0773 195.249 23.0773C195.8 23.0773 196.362 23.0315 196.935 22.9397C197.532 22.825 198.071 22.6759 198.552 22.4924L199.275 26.4839C198.656 26.7362 197.967 26.9541 197.21 27.1376C196.453 27.3212 195.524 27.4129 194.423 27.4129C193.024 27.4129 191.866 27.2294 190.948 26.8624C190.03 26.4724 189.296 25.9448 188.746 25.2795C188.195 24.5914 187.805 23.7655 187.576 22.8021C187.369 21.8386 187.266 20.7719 187.266 19.602V4.39314Z" fill="black"/>
<path d="M206.563 23.4214C207.068 23.4214 207.549 23.41 208.008 23.387C208.467 23.3641 208.834 23.3297 209.109 23.2838V19.3956C208.903 19.3497 208.593 19.3038 208.18 19.2579C207.767 19.212 207.389 19.1891 207.045 19.1891C206.563 19.1891 206.104 19.2235 205.668 19.2923C205.255 19.3382 204.888 19.4414 204.567 19.602C204.246 19.7626 203.994 19.9805 203.81 20.2558C203.627 20.5311 203.535 20.8752 203.535 21.2881C203.535 22.091 203.799 22.653 204.326 22.9741C204.877 23.2723 205.622 23.4214 206.563 23.4214ZM206.15 8.41902C207.664 8.41902 208.926 8.59107 209.935 8.93516C210.944 9.27925 211.747 9.77245 212.344 10.4148C212.963 11.0571 213.399 11.837 213.651 12.7546C213.904 13.6722 214.03 14.693 214.03 15.817V26.4839C213.296 26.6444 212.275 26.828 210.967 27.0344C209.66 27.2638 208.077 27.3785 206.219 27.3785C205.049 27.3785 203.982 27.2753 203.019 27.0688C202.078 26.8624 201.264 26.5297 200.576 26.071C199.888 25.5892 199.36 24.9699 198.993 24.2129C198.626 23.4559 198.442 22.5268 198.442 21.4257C198.442 20.3705 198.649 19.4759 199.062 18.7418C199.498 18.0077 200.071 17.4228 200.782 16.9869C201.493 16.5511 202.308 16.2414 203.225 16.0579C204.143 15.8514 205.095 15.7482 206.081 15.7482C206.747 15.7482 207.331 15.7826 207.836 15.8514C208.364 15.8973 208.788 15.9661 209.109 16.0579V15.5761C209.109 14.7044 208.845 14.0048 208.318 13.4772C207.79 12.9496 206.873 12.6858 205.565 12.6858C204.693 12.6858 203.833 12.7546 202.984 12.8922C202.136 13.0069 201.402 13.179 200.782 13.4084L200.128 9.27925C200.427 9.18749 200.794 9.09574 201.23 9.00398C201.688 8.88928 202.182 8.79752 202.709 8.72871C203.237 8.63695 203.787 8.56813 204.361 8.52225C204.957 8.45343 205.554 8.41902 206.15 8.41902Z" fill="black"/>
<path d="M223.483 27.3441C221.992 27.3212 220.776 27.1606 219.836 26.8624C218.918 26.5642 218.184 26.1512 217.634 25.6236C217.106 25.0731 216.739 24.4193 216.533 23.6623C216.349 22.8824 216.257 22.0107 216.257 21.0472V1.12427L221.384 0.298447V20.0149C221.384 20.4737 221.419 20.8866 221.487 21.2537C221.556 21.6207 221.682 21.9304 221.866 22.1827C222.072 22.435 222.359 22.6415 222.726 22.8021C223.093 22.9627 223.586 23.0659 224.206 23.1118L223.483 27.3441Z" fill="black"/>
</svg>
