<svg width="89" height="89" viewBox="0 0 89 89" fill="none" xmlns="http://www.w3.org/2000/svg">
<rect width="88.6522" height="88.6522" rx="5" fill="white"/>
<path d="M42.904 66.576C40.472 66.576 38.04 66.4907 35.608 66.32C33.2187 66.192 30.7227 65.8507 28.12 65.296V22.288C30.168 21.904 32.408 21.6267 34.84 21.456C37.272 21.2427 39.5333 21.136 41.624 21.136C44.44 21.136 47.0213 21.3493 49.368 21.776C51.7573 22.16 53.8053 22.8427 55.512 23.824C57.2187 24.8053 58.5413 26.1067 59.48 27.728C60.4613 29.3067 60.952 31.2693 60.952 33.616C60.952 37.1573 59.2453 39.952 55.832 42C58.648 43.0667 60.568 44.5173 61.592 46.352C62.616 48.1867 63.128 50.256 63.128 52.56C63.128 57.2107 61.4213 60.7093 58.008 63.056C54.6373 65.4027 49.6027 66.576 42.904 66.576ZM37.848 46.672V58.128C38.5733 58.2133 39.3627 58.2773 40.216 58.32C41.0693 58.3627 42.008 58.384 43.032 58.384C46.0187 58.384 48.4293 57.9573 50.264 57.104C52.0987 56.2507 53.016 54.672 53.016 52.368C53.016 50.32 52.248 48.8693 50.712 48.016C49.176 47.12 46.9787 46.672 44.12 46.672H37.848ZM37.848 39.056H42.712C45.784 39.056 47.9813 38.672 49.304 37.904C50.6267 37.0933 51.288 35.8133 51.288 34.064C51.288 32.272 50.6053 31.0133 49.24 30.288C47.8747 29.5627 45.8693 29.2 43.224 29.2C42.3707 29.2 41.4533 29.2213 40.472 29.264C39.4907 29.264 38.616 29.3067 37.848 29.392V39.056Z" fill="url(#paint0_linear_6_3)"/>
<defs>
<linearGradient id="paint0_linear_6_3" x1="44.5" y1="17" x2="44.5" y2="68" gradientUnits="userSpaceOnUse">
<stop stop-color="#F97316"/>
<stop offset="1" stop-color="#F97316" stop-opacity="0.7"/>
</linearGradient>
</defs>
</svg>
