<svg width="89" height="89" viewBox="0 0 89 89" fill="none" xmlns="http://www.w3.org/2000/svg">
<rect width="88.6522" height="88.6522" rx="5" fill="white"/>
<path d="M43.091 58.384C44.499 58.384 45.651 58.2773 46.547 58.064C47.4857 57.808 48.2323 57.488 48.787 57.104C49.3417 56.6773 49.7257 56.1867 49.939 55.632C50.1523 55.0773 50.259 54.4587 50.259 53.776C50.259 52.3253 49.5763 51.1307 48.211 50.192C46.8457 49.2107 44.499 48.1653 41.171 47.056C39.7203 46.544 38.2697 45.968 36.819 45.328C35.3683 44.6453 34.067 43.8133 32.915 42.832C31.763 41.808 30.8243 40.592 30.099 39.184C29.3737 37.7333 29.011 35.984 29.011 33.936C29.011 31.888 29.395 30.0533 30.163 28.432C30.931 26.768 32.019 25.36 33.427 24.208C34.835 23.056 36.5417 22.1813 38.547 21.584C40.5523 20.944 42.8137 20.624 45.331 20.624C48.3177 20.624 50.899 20.944 53.075 21.584C55.251 22.224 57.043 22.928 58.451 23.696L55.571 31.568C54.3337 30.928 52.947 30.3733 51.411 29.904C49.9177 29.392 48.1043 29.136 45.971 29.136C43.5817 29.136 41.8537 29.4773 40.787 30.16C39.763 30.8 39.251 31.8027 39.251 33.168C39.251 33.9787 39.443 34.6613 39.827 35.216C40.211 35.7707 40.7443 36.2827 41.427 36.752C42.1523 37.1787 42.963 37.584 43.859 37.968C44.7977 38.3093 45.8217 38.672 46.931 39.056C49.235 39.9093 51.2403 40.7627 52.947 41.616C54.6537 42.4267 56.0617 43.3867 57.171 44.496C58.323 45.6053 59.1763 46.9067 59.731 48.4C60.2857 49.8933 60.563 51.7067 60.563 53.84C60.563 57.9787 59.1123 61.2 56.211 63.504C53.3097 65.7653 48.9363 66.896 43.091 66.896C41.1283 66.896 39.3577 66.768 37.779 66.512C36.2003 66.2987 34.7923 66.0213 33.555 65.68C32.3603 65.3387 31.315 64.976 30.419 64.592C29.5657 64.208 28.8403 63.8453 28.243 63.504L31.059 55.568C32.3817 56.2933 34.003 56.9547 35.923 57.552C37.8857 58.1067 40.275 58.384 43.091 58.384Z" fill="url(#paint0_linear_6_3)"/>
<defs>
<linearGradient id="paint0_linear_6_3" x1="44.5" y1="17" x2="44.5" y2="68" gradientUnits="userSpaceOnUse">
<stop stop-color="#F97316"/>
<stop offset="1" stop-color="#F97316" stop-opacity="0.7"/>
</linearGradient>
</defs>
</svg>
