<svg width="33" height="47" viewBox="0 0 33 47" fill="none" xmlns="http://www.w3.org/2000/svg">
<path d="M15.091 38.384C16.499 38.384 17.651 38.2773 18.547 38.064C19.4857 37.808 20.2323 37.488 20.787 37.104C21.3417 36.6773 21.7257 36.1867 21.939 35.632C22.1523 35.0773 22.259 34.4587 22.259 33.776C22.259 32.3253 21.5763 31.1307 20.211 30.192C18.8457 29.2107 16.499 28.1653 13.171 27.056C11.7203 26.544 10.2697 25.968 8.819 25.328C7.36833 24.6453 6.067 23.8133 4.915 22.832C3.763 21.808 2.82433 20.592 2.099 19.184C1.37367 17.7333 1.011 15.984 1.011 13.936C1.011 11.888 1.395 10.0533 2.163 8.432C2.931 6.768 4.019 5.36 5.427 4.208C6.835 3.056 8.54167 2.18133 10.547 1.584C12.5523 0.943998 14.8137 0.623997 17.331 0.623997C20.3177 0.623997 22.899 0.943998 25.075 1.584C27.251 2.224 29.043 2.928 30.451 3.696L27.571 11.568C26.3337 10.928 24.947 10.3733 23.411 9.904C21.9177 9.392 20.1043 9.136 17.971 9.136C15.5817 9.136 13.8537 9.47733 12.787 10.16C11.763 10.8 11.251 11.8027 11.251 13.168C11.251 13.9787 11.443 14.6613 11.827 15.216C12.211 15.7707 12.7443 16.2827 13.427 16.752C14.1523 17.1787 14.963 17.584 15.859 17.968C16.7977 18.3093 17.8217 18.672 18.931 19.056C21.235 19.9093 23.2403 20.7627 24.947 21.616C26.6537 22.4267 28.0617 23.3867 29.171 24.496C30.323 25.6053 31.1763 26.9067 31.731 28.4C32.2857 29.8933 32.563 31.7067 32.563 33.84C32.563 37.9787 31.1123 41.2 28.211 43.504C25.3097 45.7653 20.9363 46.896 15.091 46.896C13.1283 46.896 11.3577 46.768 9.779 46.512C8.20033 46.2987 6.79233 46.0213 5.555 45.68C4.36033 45.3387 3.315 44.976 2.419 44.592C1.56567 44.208 0.840333 43.8453 0.243 43.504L3.059 35.568C4.38167 36.2933 6.003 36.9547 7.923 37.552C9.88567 38.1067 12.275 38.384 15.091 38.384Z" fill="url(#paint0_linear_5_4)"/>
<defs>
<linearGradient id="paint0_linear_5_4" x1="16.5" y1="-3" x2="16.5" y2="48" gradientUnits="userSpaceOnUse">
<stop stop-color="#F97316"/>
<stop offset="1" stop-color="#F97316" stop-opacity="0.7"/>
</linearGradient>
</defs>
</svg>
