<svg width="36" height="46" viewBox="0 0 36 46" fill="none" xmlns="http://www.w3.org/2000/svg">
<path d="M14.904 45.576C12.472 45.576 10.04 45.4907 7.608 45.32C5.21867 45.192 2.72267 44.8507 0.12 44.296V1.288C2.168 0.903998 4.408 0.626664 6.84 0.455997C9.272 0.242664 11.5333 0.135998 13.624 0.135998C16.44 0.135998 19.0213 0.349331 21.368 0.775997C23.7573 1.16 25.8053 1.84266 27.512 2.824C29.2187 3.80533 30.5413 5.10666 31.48 6.728C32.4613 8.30666 32.952 10.2693 32.952 12.616C32.952 16.1573 31.2453 18.952 27.832 21C30.648 22.0667 32.568 23.5173 33.592 25.352C34.616 27.1867 35.128 29.256 35.128 31.56C35.128 36.2107 33.4213 39.7093 30.008 42.056C26.6373 44.4027 21.6027 45.576 14.904 45.576ZM9.848 25.672V37.128C10.5733 37.2133 11.3627 37.2773 12.216 37.32C13.0693 37.3627 14.008 37.384 15.032 37.384C18.0187 37.384 20.4293 36.9573 22.264 36.104C24.0987 35.2507 25.016 33.672 25.016 31.368C25.016 29.32 24.248 27.8693 22.712 27.016C21.176 26.12 18.9787 25.672 16.12 25.672H9.848ZM9.848 18.056H14.712C17.784 18.056 19.9813 17.672 21.304 16.904C22.6267 16.0933 23.288 14.8133 23.288 13.064C23.288 11.272 22.6053 10.0133 21.24 9.288C19.8747 8.56266 17.8693 8.2 15.224 8.2C14.3707 8.2 13.4533 8.22133 12.472 8.264C11.4907 8.264 10.616 8.30667 9.848 8.392V18.056Z" fill="url(#paint0_linear_5_4)"/>
<defs>
<linearGradient id="paint0_linear_5_4" x1="16.5" y1="-4" x2="16.5" y2="47" gradientUnits="userSpaceOnUse">
<stop stop-color="#9D4EDD"/>
<stop offset="0.5" stop-color="#9D4EDD" stop-opacity="0.7"/>
</linearGradient>
</defs>
</svg>
