<svg width="413" height="388" viewBox="0 0 413 388" fill="none" xmlns="http://www.w3.org/2000/svg">
<path d="M399.259 11.6883H252.982V274.456H399.259V11.6883Z" fill="#EBEBEB"/>
<path d="M391.91 19.3043H258.83V266.626H391.91V19.3043Z" fill="#FAFAFA"/>
<path d="M405.446 276.822L399.259 274.456V7.22397H405.446V276.822Z" fill="#E0E0E0"/>
<path d="M291.446 179.046L326.008 146.903C330.392 142.831 336.116 138.447 341.75 140.456C344.428 141.421 346.491 143.733 349.151 144.84C354.455 147.046 360.517 143.858 364.598 139.804C368.678 135.751 371.892 130.697 376.839 127.76C381.785 124.822 389.464 125.197 391.901 130.438V165.394L341.714 186.903L291.446 179.046Z" fill="#F5F5F5"/>
<path d="M258.83 158.965C271.562 153.778 284.267 158.188 293.383 168.483C295.303 170.653 297.053 173.153 299.687 174.349C303.258 175.974 307.383 174.76 311.294 174.349C316.645 173.821 322.037 174.783 326.875 177.13C331.713 179.476 335.807 183.115 338.705 187.644L296.178 208.51L258.839 208.242L258.83 158.965Z" fill="#E0E0E0"/>
<path d="M391.901 159.144C383.517 155.09 376.133 159.992 368.392 165.179C360.651 170.367 353.464 177.01 344.392 179.099C338.33 180.492 331.83 179.724 325.964 181.778C314.017 186.028 307.116 201.197 294.455 201.921C287.58 202.313 281.41 198.144 275.276 195.019C269.142 191.894 264.303 188.929 258.839 193.108V266.59H391.875L391.901 159.144Z" fill="#EBEBEB"/>
<path d="M394.794 90.4562H258.83V93.0901H394.794V90.4562Z" fill="#E0E0E0"/>
<path d="M394.794 149.349H258.83V151.983H394.794V149.349Z" fill="#E0E0E0"/>
<path d="M394.794 208.251H258.83V210.885H394.794V208.251Z" fill="#E0E0E0"/>
<path d="M322 91.7687V273.644H328.723V91.7687H322Z" fill="#E0E0E0"/>
<path d="M287.499 19.3043H284.455V91.7687H287.499V19.3043Z" fill="#E0E0E0"/>
<path d="M313.767 19.3043H310.723V91.7687H313.767V19.3043Z" fill="#E0E0E0"/>
<path d="M340.035 19.3043H336.991V91.7687H340.035V19.3043Z" fill="#E0E0E0"/>
<path d="M366.303 19.3043H363.258V91.7687H366.303V19.3043Z" fill="#E0E0E0"/>
<path d="M252.982 7.22397H246.794V276.081H252.982V7.22397Z" fill="#E0E0E0"/>
<path d="M405.446 4.51861H246.794V11.6883H405.446V4.51861Z" fill="#E0E0E0"/>
<path d="M409.625 277.706H242.401V284.385H409.625V277.706Z" fill="#E0E0E0"/>
<path d="M399.259 274.456L409.634 277.706H242.401L252.982 274.456H399.259Z" fill="#EBEBEB"/>
<path d="M65.16 33.6615C65.002 32.9915 64.9241 32.3052 64.9279 31.6168C64.8993 30.7925 64.8067 29.9716 64.6511 29.1615C64.5259 28.0498 64.32 26.9487 64.035 25.8668C63.3197 22.8821 62.1642 20.0204 60.6064 17.3758C56.9683 11.0319 51.239 6.14929 44.3986 3.56296C37.5581 0.976629 30.0316 0.847331 23.1064 3.19718C20.2332 4.13822 17.5226 5.5176 15.0707 7.28647C13.8149 8.18343 12.6217 9.16486 11.4993 10.224C10.3715 11.3441 9.31867 12.5371 8.34747 13.7954C4.281 19.0617 2.00155 25.4885 1.84096 32.1402C1.68037 38.7918 3.64702 45.3211 7.45461 50.7776C8.3619 52.0776 9.35519 53.3155 10.4278 54.4829C11.489 55.5975 12.6192 56.6442 13.8118 57.6169C16.1713 59.4972 18.8063 61.003 21.6243 62.0812C28.4388 64.739 35.9627 64.9588 42.9209 62.7035C49.879 60.4481 55.8433 55.8562 59.8029 49.7061C61.4825 47.1393 62.7733 44.3382 63.6332 41.3936C63.9782 40.3278 64.2468 39.2387 64.4368 38.1347C64.6277 37.333 64.759 36.5183 64.8297 35.6972C64.8647 35.0086 64.9755 34.3259 65.16 33.6615C65.2415 34.3466 65.2415 35.0389 65.16 35.724C65.1535 36.5624 65.0759 37.3987 64.9279 38.224C64.8017 39.3457 64.5898 40.4561 64.2939 41.5454C63.5352 44.6036 62.2998 47.5232 60.6332 50.1972C58.204 54.1597 54.9555 57.5568 51.1057 60.1609C47.2559 62.7649 42.8937 64.5156 38.3118 65.2954C32.4998 66.2577 26.536 65.641 21.0439 63.5097C18.0711 62.3885 15.2886 60.8165 12.7939 58.849C11.497 57.8452 10.2681 56.7565 9.11532 55.5901C7.98065 54.3597 6.9278 53.0563 5.96354 51.6883C1.92915 45.9489 -0.157831 39.0667 0.00931076 32.0532C0.176452 25.0397 2.5889 18.2647 6.89211 12.724C7.91649 11.4032 9.02916 10.1533 10.2225 8.9829C11.4231 7.87209 12.6967 6.843 14.035 5.90254C16.6242 4.05889 19.4822 2.62539 22.5082 1.65253C28.1012 -0.189728 34.0859 -0.498061 39.8386 0.759677C44.3824 1.75236 48.6614 3.70563 52.3881 6.48837C56.1149 9.27111 59.2032 12.8189 61.4457 16.8936C62.9782 19.6468 64.0689 22.6235 64.6779 25.7151C64.9302 26.8317 65.0974 27.9659 65.1779 29.1079C65.2834 29.9368 65.3192 30.7731 65.285 31.6079C65.322 32.295 65.28 32.984 65.16 33.6615Z" fill="#EBEBEB"/>
<path d="M58.7314 13.5722C58.7939 13.6704 58.2136 14.1793 57.0975 15.0097L55.0261 16.4918C54.6154 16.7775 54.1868 17.09 53.7136 17.3847L52.1243 18.215C46.376 21.4964 39.8393 23.1422 33.2225 22.974L30.3653 22.849L27.6153 22.4115C27.1689 22.3401 26.7225 22.2776 26.2761 22.1883L24.9993 21.9026C24.1064 21.6704 23.3207 21.474 22.526 21.2151C19.7227 20.2746 17.0286 19.0353 14.4903 17.5186C10.1778 14.9115 8.07961 12.5454 8.24032 12.3936C8.40104 12.2418 10.7582 14.1793 15.0975 16.4293C17.6298 17.7401 20.2743 18.8218 22.9993 19.6615C23.7671 19.8847 24.5707 20.0543 25.3832 20.2597L26.6153 20.5722L27.8921 20.7597L30.5171 21.1526L33.2403 21.2597C39.5855 21.375 45.8638 19.9471 51.535 17.099L53.1332 16.4115C53.6243 16.1525 54.0261 15.8758 54.4904 15.6436L56.6868 14.4383C57.9457 13.7865 58.6779 13.474 58.7314 13.5722Z" fill="#EBEBEB"/>
<path d="M7.28497 52.6704C7.21354 52.5722 7.79389 52.0722 8.90997 51.2329L10.9814 49.7508C11.3921 49.474 11.8207 49.1526 12.2939 48.8579L13.8832 48.0365C19.6294 44.749 26.167 43.0999 32.785 43.2686L35.6511 43.3936L38.3921 43.8222C38.8386 43.8936 39.285 43.9561 39.7314 44.0454L41.0082 44.3847C41.8564 44.6169 42.6868 44.8222 43.4814 45.0722C46.2855 46.0108 48.9798 47.2502 51.5171 48.7686C55.8297 51.3758 57.9279 53.7419 57.7672 53.8937C57.6064 54.0454 55.2493 52.1079 50.91 49.8579C48.3784 48.5524 45.7373 47.4709 43.0171 46.6258C42.2404 46.4026 41.4368 46.2329 40.6243 46.0276L39.3921 45.724L38.1421 45.5276L35.4636 45.1169L32.785 45.0008C26.4375 44.8688 20.153 46.2813 14.4725 49.1169L12.8743 49.8133C12.3832 50.0633 11.9814 50.3401 11.5171 50.5722L9.28497 51.8133C8.07068 52.4562 7.35639 52.7687 7.28497 52.6704Z" fill="#EBEBEB"/>
<path d="M65.1422 34.4026C65.1422 34.8936 50.7225 34.9383 32.9993 34.5097C15.276 34.0811 0.856388 33.3311 0.856388 32.8401C0.856388 32.349 15.276 32.3044 32.9993 32.7419C50.7225 33.1794 65.1511 33.9204 65.1422 34.4026Z" fill="#EBEBEB"/>
<path d="M31.5082 65.0008C31.0171 65.0008 30.9725 50.5901 31.41 32.8579C31.8475 15.1258 32.5796 0.715035 33.0707 0.715035C33.5618 0.715035 33.6064 15.1258 33.1778 32.8579C32.7493 50.5901 31.9993 65.0187 31.5082 65.0008Z" fill="#EBEBEB"/>
<path d="M31.5082 64.9562C31.3921 65.1437 27.8475 62.7419 23.7582 57.3044C21.3747 54.1165 19.4399 50.6166 18.0082 46.9026C16.2782 42.2989 15.4359 37.4091 15.526 32.4918C15.6404 27.5611 16.7425 22.7034 18.7671 18.2061C20.3919 14.5715 22.4938 11.1695 25.0171 8.09004C29.3475 2.85789 32.9189 0.536463 33.0528 0.723963C33.1868 0.911464 29.9903 3.56325 26.0171 8.8579C23.7138 11.9439 21.7893 15.2952 20.285 18.84C18.4359 23.1605 17.4268 27.7937 17.3118 32.4918C17.2212 37.1941 17.9835 41.8739 19.5618 46.3044C20.8579 49.9319 22.6005 53.384 24.7493 56.5812C28.4993 62.0812 31.6868 64.7597 31.5082 64.9562Z" fill="#EBEBEB"/>
<path d="M33.7939 0.732893C33.91 0.545393 37.4546 2.94718 41.5439 8.38468C43.9284 11.5848 45.8631 15.0967 47.2939 18.8222C49.0148 23.4277 49.848 28.3174 49.7493 33.2329C49.6349 38.1636 48.5328 43.0213 46.5082 47.5186C44.8834 51.1533 42.7816 54.5552 40.2582 57.6347C35.9278 62.8669 32.3564 65.1883 32.2225 65.0008C32.0886 64.8133 35.285 62.1704 39.2582 56.8669C41.5746 53.7799 43.5112 50.4255 45.0261 46.8758C46.8751 42.5553 47.8842 37.9221 47.9993 33.224C48.0898 28.5217 47.3275 23.8419 45.7493 19.4115C44.4391 15.7818 42.6815 12.3295 40.5171 9.13469C36.8028 3.62575 33.6153 0.929322 33.7939 0.732893Z" fill="#EBEBEB"/>
<path d="M412.991 387.742C412.991 387.867 321.508 387.974 208.687 387.974C95.8654 387.974 4.36532 387.867 4.36532 387.742C4.36532 387.617 95.8297 387.51 208.687 387.51C321.544 387.51 412.991 387.608 412.991 387.742Z" fill="#263238"/>
<path d="M31.2939 343.43L37.6957 387.992H60.9725L66.8297 343.43H31.2939Z" fill="#455A64"/>
<path d="M28.7314 343.43C28.8475 340.439 29.535 337.76 31.8207 336.001H66.8297C68.7493 337.456 69.3297 340.269 69.5886 343.43H28.7314Z" fill="#455A64"/>
<path d="M34.0707 336.001L37.0261 331.653H61.285L63.8654 336.001H34.0707Z" fill="#455A64"/>
<path d="M66.7136 335.849C66.7136 335.974 59.1957 336.081 49.9189 336.081C40.6421 336.081 33.1243 335.974 33.1243 335.849C33.1243 335.724 40.6421 335.617 49.9189 335.617C59.1957 335.617 66.7136 335.724 66.7136 335.849Z" fill="#263238"/>
<path d="M69.5886 343.43C69.5886 343.555 60.5261 343.662 49.3475 343.662C38.1689 343.662 29.0975 343.555 29.0975 343.43C29.0975 343.305 38.16 343.197 49.3475 343.197C60.535 343.197 69.5886 343.331 69.5886 343.43Z" fill="#263238"/>
<path d="M32.7403 353.492H65.5082L63.5886 368.09H34.8386L32.7403 353.492Z" fill="#263238"/>
<path d="M47.8921 284.046C48.0605 284.068 48.2237 284.119 48.3743 284.197C48.806 284.425 49.1719 284.761 49.4368 285.171C49.8479 285.826 50.0674 286.584 50.0707 287.358C50.0366 288.382 49.7282 289.378 49.1779 290.242C48.5397 291.266 47.839 292.25 47.0796 293.188C46.222 294.233 45.6417 295.477 45.3921 296.805C45.2989 298.289 45.7461 299.758 46.6511 300.938C47.5439 302.233 48.6421 303.43 49.66 304.787C50.1757 305.461 50.6187 306.189 50.9814 306.956C51.3257 307.727 51.5138 308.559 51.535 309.403C51.4622 310.988 50.8727 312.506 49.8564 313.724C48.9636 314.903 47.9457 315.858 47.0796 316.813C46.2564 317.664 45.5697 318.637 45.0439 319.697C44.6244 320.575 44.4693 321.555 44.5975 322.519C44.6765 323.248 44.9443 323.943 45.3743 324.537C45.7607 325.032 46.268 325.419 46.8475 325.662C46.8475 325.662 46.8475 325.662 46.7225 325.662C46.5982 325.642 46.4777 325.602 46.3654 325.546C45.9184 325.348 45.5285 325.041 45.2314 324.653C44.7572 324.042 44.4495 323.319 44.3386 322.555C44.1744 321.542 44.3175 320.503 44.7493 319.572C45.27 318.457 45.9697 317.435 46.8207 316.546C47.7136 315.564 48.6868 314.608 49.4993 313.456C50.4629 312.317 51.0273 310.893 51.1064 309.403C51.0803 308.625 50.9013 307.861 50.5796 307.153C50.2288 306.416 49.8008 305.719 49.3029 305.072C48.3118 303.742 47.1868 302.537 46.285 301.197C45.3225 299.917 44.862 298.329 44.9904 296.733C45.2475 295.338 45.8629 294.033 46.7761 292.947C47.5317 292.024 48.2381 291.061 48.8921 290.063C49.4229 289.249 49.7308 288.31 49.785 287.34C49.8039 286.608 49.6184 285.884 49.2493 285.251C48.9249 284.725 48.4529 284.306 47.8921 284.046Z" fill="#263238"/>
<path d="M53.7671 284.046C53.9355 284.068 54.0987 284.119 54.2493 284.197C54.681 284.425 55.0469 284.761 55.3118 285.171C55.7229 285.826 55.9425 286.584 55.9457 287.358C55.9073 288.381 55.5993 289.376 55.0529 290.242C54.4147 291.266 53.714 292.25 52.9546 293.188C52.097 294.233 51.5167 295.477 51.2671 296.805C51.1794 298.287 51.6225 299.753 52.5171 300.938C53.41 302.233 54.5172 303.43 55.535 304.787C56.0632 305.46 56.5181 306.187 56.8922 306.956C57.2372 307.721 57.4283 308.546 57.4546 309.385C57.3819 310.97 56.7923 312.488 55.7761 313.706C54.8832 314.885 53.8654 315.84 52.9993 316.796C52.176 317.646 51.4893 318.619 50.9636 319.68C50.5441 320.557 50.3889 321.537 50.5171 322.501C50.5962 323.23 50.8639 323.925 51.2939 324.519C51.6804 325.014 52.1877 325.401 52.7671 325.644C52.7671 325.644 52.7671 325.644 52.6421 325.644C52.5178 325.624 52.3974 325.585 52.285 325.528C51.8381 325.33 51.4481 325.023 51.1511 324.635C50.6768 324.025 50.3692 323.302 50.2582 322.537C50.0941 321.524 50.2371 320.485 50.6689 319.555C51.1777 318.449 51.8622 317.433 52.6957 316.546C53.5886 315.564 54.5618 314.608 55.3743 313.456C56.3379 312.317 56.9023 310.893 56.9814 309.403C56.9511 308.626 56.7723 307.862 56.4547 307.153C56.1005 306.418 55.6727 305.721 55.1779 305.072C54.1868 303.742 53.0618 302.537 52.16 301.197C51.1975 299.917 50.737 298.329 50.8654 296.733C51.126 295.339 51.741 294.035 52.6511 292.947C53.4123 292.026 54.1217 291.063 54.7761 290.063C55.3068 289.249 55.6147 288.31 55.6689 287.34C55.6878 286.608 55.5023 285.884 55.1332 285.251C54.8064 284.723 54.3312 284.304 53.7671 284.046Z" fill="#263238"/>
<path d="M222.598 47.724H51.4725V273.206H222.598V47.724Z" fill="white"/>
<path d="M222.598 273.206C222.598 271.358 222.517 181.367 222.392 47.724L222.598 47.9383L51.535 47.9651L51.7671 47.724C51.7671 131.653 51.7671 209.412 51.7671 273.206L51.5796 273.019L222.705 273.206L51.5796 273.403H51.3832V273.206C51.3832 209.412 51.3832 131.617 51.3832 47.724V47.4919H222.857V47.6972C222.687 181.367 222.607 271.367 222.598 273.206Z" fill="#263238"/>
<path d="M222.598 64.1972C222.598 64.2776 184.285 64.3401 137.044 64.3401C89.8029 64.3401 51.4725 64.2776 51.4725 64.1972C51.4725 64.1169 89.7761 64.0633 137.044 64.0633C184.312 64.0633 222.598 64.1258 222.598 64.1972Z" fill="#263238"/>
<path d="M170.16 56.4919C170.16 56.5722 157.089 56.6347 140.973 56.6347C124.857 56.6347 111.776 56.5722 111.776 56.4919C111.776 56.4115 124.848 56.3579 140.973 56.3579C157.098 56.3579 170.16 56.4204 170.16 56.4919Z" fill="#455A64"/>
<path d="M60.0261 56.4919C60.0261 56.8662 59.9151 57.2322 59.7071 57.5435C59.4991 57.8548 59.2035 58.0974 58.8576 58.2406C58.5117 58.3839 58.1311 58.4214 57.7639 58.3484C57.3968 58.2753 57.0595 58.095 56.7948 57.8303C56.53 57.5656 56.3498 57.2283 56.2767 56.8611C56.2037 56.494 56.2412 56.1134 56.3844 55.7675C56.5277 55.4216 56.7703 55.126 57.0816 54.918C57.3929 54.71 57.7589 54.599 58.1332 54.599C58.3818 54.599 58.6279 54.648 58.8576 54.7431C59.0872 54.8382 59.2959 54.9776 59.4717 55.1534C59.6474 55.3292 59.7869 55.5379 59.882 55.7675C59.9771 55.9972 60.0261 56.2433 60.0261 56.4919Z" fill="#E0E0E0"/>
<path d="M66.4368 56.4919C66.4368 56.8666 66.3256 57.2329 66.1172 57.5444C65.9088 57.8559 65.6126 58.0985 65.2662 58.2415C64.9198 58.3845 64.5388 58.4214 64.1714 58.3477C63.8039 58.2739 63.4667 58.0927 63.2023 57.8271C62.938 57.5615 62.7584 57.2234 62.6864 56.8556C62.6143 56.4879 62.6531 56.107 62.7977 55.7613C62.9424 55.4156 63.1864 55.1206 63.4988 54.9137C63.8113 54.7068 64.1781 54.5972 64.5529 54.599C64.801 54.599 65.0467 54.648 65.2759 54.7433C65.505 54.8385 65.7131 54.9781 65.8882 55.154C66.0632 55.3298 66.2018 55.5386 66.296 55.7682C66.3901 55.9978 66.438 56.2437 66.4368 56.4919Z" fill="#E0E0E0"/>
<path d="M72.8564 56.4919C72.8564 56.8662 72.7454 57.2322 72.5374 57.5435C72.3295 57.8548 72.0338 58.0974 71.688 58.2406C71.3421 58.3839 70.9615 58.4214 70.5943 58.3484C70.2271 58.2753 69.8899 58.095 69.6251 57.8303C69.3604 57.5656 69.1801 57.2283 69.1071 56.8611C69.0341 56.494 69.0716 56.1134 69.2148 55.7675C69.3581 55.4216 69.6007 55.126 69.912 54.918C70.2233 54.71 70.5892 54.599 70.9636 54.599C71.2122 54.599 71.4583 54.648 71.688 54.7431C71.9176 54.8382 72.1263 54.9776 72.302 55.1534C72.4778 55.3292 72.6172 55.5379 72.7124 55.7675C72.8075 55.9972 72.8564 56.2433 72.8564 56.4919Z" fill="#E0E0E0"/>
<path d="M116.571 87.2419H112.651L111.901 89.0276H109.901L113.669 80.5812H115.598L119.392 89.0455H117.339L116.571 87.2419ZM115.955 85.7508L114.615 82.5187L113.276 85.7508H115.955Z" fill="#455A64"/>
<path d="M125.642 89.0455L124.017 86.6973H122.231V89.0455H120.285V80.599H123.946C126.196 80.599 127.615 81.7687 127.615 83.6705C127.642 84.2429 127.488 84.8092 127.175 85.2896C126.863 85.7701 126.408 86.1406 125.874 86.349L127.767 89.0276L125.642 89.0455ZM123.812 82.1972H122.214V85.1347H123.812C124.999 85.1347 125.598 84.5812 125.598 83.6705C125.598 82.7597 124.99 82.1972 123.803 82.1972H123.812Z" fill="#455A64"/>
<path d="M130.749 82.1972H128.071V80.599H135.428V82.1972H132.749V89.0455H130.794L130.749 82.1972Z" fill="#455A64"/>
<path d="M136.455 80.599H138.41V89.0455H136.455V80.599Z" fill="#455A64"/>
<path d="M139.928 84.8223C139.985 83.9162 140.307 83.0468 140.853 82.3217C141.4 81.5965 142.147 81.0475 143.002 80.7425C143.857 80.4375 144.783 80.3899 145.665 80.6056C146.547 80.8213 147.346 81.2909 147.964 81.9562L146.714 83.108C146.455 82.7966 146.13 82.5468 145.762 82.3769C145.394 82.207 144.994 82.1212 144.589 82.1258C143.878 82.1258 143.197 82.408 142.695 82.9104C142.192 83.4127 141.91 84.094 141.91 84.8044C141.91 85.5148 142.192 86.1961 142.695 86.6984C143.197 87.2008 143.878 87.483 144.589 87.483C144.996 87.4886 145.398 87.4015 145.767 87.2283C146.135 87.055 146.459 86.8001 146.714 86.483L147.964 87.6437C147.346 88.309 146.547 88.7785 145.665 88.9942C144.783 89.2099 143.857 89.1623 143.002 88.8573C142.147 88.5523 141.4 88.0033 140.853 87.2782C140.307 86.5531 139.985 85.6837 139.928 84.7776V84.8223Z" fill="#455A64"/>
<path d="M149.249 80.599H151.205V87.4562H155.446V89.0455H149.249V80.599Z" fill="#455A64"/>
<path d="M163.08 87.483V89.0455H156.535V80.599H162.919V82.1705H158.455V83.9562H162.374V85.483H158.455V87.4383L163.08 87.483Z" fill="#455A64"/>
<path d="M105.723 85.5812C105.723 85.6526 96.669 85.7151 85.4993 85.7151C74.3297 85.7151 65.2672 85.6526 65.2672 85.5812C65.2672 85.5097 74.3207 85.4383 85.4993 85.4383C96.6779 85.4383 105.723 85.5008 105.723 85.5812Z" fill="#263238"/>
<path d="M213.312 85.5812C213.312 85.6526 203.803 85.7151 192.071 85.7151C180.339 85.7151 170.83 85.6526 170.83 85.5812C170.83 85.5097 180.339 85.4383 192.071 85.4383C203.803 85.4383 213.312 85.5008 213.312 85.5812Z" fill="#263238"/>
<path d="M205.642 222.171H164.607V261.876H205.642V222.171Z" fill="#455A64"/>
<path d="M167.785 258.483L179.142 238.046L188.428 251.108L194.071 244.171L202.464 258.483H167.785Z" fill="black"/>
<path d="M191.589 231.912C193.999 235.072 190.428 238.644 187.267 236.242C184.857 233.072 188.428 229.501 191.589 231.912Z" fill="black"/>
<path d="M202.428 258.59C202.424 258.537 202.424 258.483 202.428 258.43C202.428 258.313 202.428 258.162 202.428 257.965C202.428 257.546 202.428 256.947 202.428 256.18C202.428 254.608 202.428 252.331 202.383 249.438C202.383 243.635 202.33 235.376 202.294 225.465L202.464 225.626H167.794C167.852 225.557 167.915 225.491 167.982 225.43V234.358C167.982 237.269 167.982 240.126 167.982 242.912C167.982 248.474 167.982 253.724 167.982 258.563L167.812 258.394L192.883 258.483L199.955 258.528H201.83H199.982L192.955 258.572L167.767 258.653H167.607V258.483C167.607 253.644 167.607 248.394 167.607 242.831V234.403C167.607 232.938 167.607 231.465 167.607 229.938V225.474C167.437 225.644 167.848 225.233 167.812 225.278H202.651V225.474C202.651 235.43 202.58 243.724 202.562 249.581C202.562 252.456 202.562 254.715 202.562 256.287C202.562 257.037 202.562 257.626 202.562 258.072C202.562 258.26 202.562 258.403 202.562 258.519C202.52 258.547 202.475 258.571 202.428 258.59Z" fill="black"/>
<path d="M105.017 100.617C105.017 100.751 96.044 100.849 84.9815 100.849C73.919 100.849 64.9279 100.751 64.9279 100.617C64.9279 100.483 73.8564 100.385 84.9725 100.385C96.0886 100.385 105.017 100.474 105.017 100.617Z" fill="#263238"/>
<path d="M135.937 110.242C135.937 110.367 120.035 110.474 100.437 110.474C80.8386 110.474 64.9279 110.367 64.9279 110.242C64.9279 110.117 80.8207 110.01 100.428 110.01C120.035 110.01 135.937 110.108 135.937 110.242Z" fill="#263238"/>
<path d="M160.205 109.537C160.205 109.662 155.901 109.769 150.589 109.769C145.276 109.769 140.973 109.662 140.973 109.537C140.973 109.412 145.276 109.304 150.589 109.304C155.901 109.304 160.205 109.403 160.205 109.537Z" fill="#263238"/>
<path d="M207.267 109.126C207.267 109.251 198.383 109.358 187.419 109.358C176.455 109.358 167.571 109.251 167.571 109.126C167.571 109.001 176.455 108.894 187.419 108.894C198.383 108.894 207.267 109.001 207.267 109.126Z" fill="#263238"/>
<path d="M206.892 117.313C206.892 117.438 175.008 117.545 135.687 117.545C96.3654 117.545 64.4725 117.438 64.4725 117.313C64.4725 117.188 96.3475 117.081 135.687 117.081C175.026 117.081 206.892 117.179 206.892 117.313Z" fill="#263238"/>
<path d="M130.74 125.903C130.74 126.037 115.981 126.135 97.794 126.135C79.6065 126.135 64.8475 126.037 64.8475 125.903C64.8475 125.769 79.5975 125.671 97.794 125.671C115.99 125.671 130.74 125.778 130.74 125.903Z" fill="#263238"/>
<path d="M154.883 125.903C151.889 126.138 148.885 126.215 145.883 126.135C142.878 126.215 139.871 126.138 136.874 125.903C139.871 125.673 142.878 125.595 145.883 125.671C148.885 125.595 151.889 125.673 154.883 125.903Z" fill="#263238"/>
<path d="M206.892 125.09C206.892 125.215 196.544 125.322 183.776 125.322C171.008 125.322 160.651 125.215 160.651 125.09C160.651 124.965 170.999 124.858 183.776 124.858C196.553 124.858 206.892 124.956 206.892 125.09Z" fill="#263238"/>
<path d="M135.035 199.581C135.035 199.715 119.142 199.813 99.544 199.813C79.9457 199.813 64.035 199.679 64.035 199.581C64.035 199.483 79.9279 199.349 99.535 199.349C119.142 199.349 135.035 199.421 135.035 199.581Z" fill="#263238"/>
<path d="M159.303 198.849C159.303 198.974 154.999 199.081 149.687 199.081C144.374 199.081 140.071 198.974 140.071 198.849C140.071 198.724 144.374 198.617 149.687 198.617C154.999 198.617 159.303 198.688 159.303 198.849Z" fill="#263238"/>
<path d="M206.374 198.438C206.374 198.563 197.446 198.671 186.526 198.671C175.607 198.671 166.678 198.563 166.678 198.438C166.678 198.313 175.562 198.206 186.526 198.206C197.49 198.206 206.374 198.304 206.374 198.438Z" fill="#263238"/>
<path d="M205.999 206.626C205.999 206.751 174.115 206.858 134.794 206.858C95.4725 206.858 63.5797 206.751 63.5797 206.626C63.5797 206.501 95.4547 206.385 134.794 206.385C174.133 206.385 205.999 206.492 205.999 206.626Z" fill="#263238"/>
<path d="M129.839 215.215C129.839 215.349 115.089 215.447 96.8922 215.447C78.6957 215.447 63.9457 215.349 63.9457 215.215C63.9457 215.081 78.6957 214.983 96.8922 214.983C115.089 214.983 129.839 215.09 129.839 215.215Z" fill="#263238"/>
<path d="M153.99 215.215C150.994 215.451 147.986 215.528 144.982 215.447C141.98 215.528 138.975 215.451 135.982 215.215C138.976 214.985 141.98 214.908 144.982 214.983C147.986 214.908 150.993 214.985 153.99 215.215Z" fill="#263238"/>
<path d="M205.999 214.394C205.999 214.528 195.642 214.626 182.874 214.626C170.107 214.626 159.749 214.528 159.749 214.394C159.749 214.26 170.107 214.162 182.874 214.162C195.642 214.162 205.999 214.269 205.999 214.394Z" fill="#263238"/>
<path d="M154.883 224.644C154.883 224.778 134.758 224.876 109.937 224.876C85.1154 224.876 64.9904 224.778 64.9904 224.644C64.9904 224.51 85.1065 224.412 109.937 224.412C134.767 224.412 154.883 224.519 154.883 224.644Z" fill="#263238"/>
<path d="M153.99 234.072C153.99 234.206 133.901 234.305 109.133 234.305C84.3654 234.305 64.285 234.206 64.285 234.072C64.285 233.938 84.3565 233.84 109.133 233.84C133.91 233.84 153.99 233.947 153.99 234.072Z" fill="#263238"/>
<path d="M151.499 135.001H64.3386V190.653H151.499V135.001Z" fill="#0066CC"/>
<path d="M147.758 186.188C147.758 186.188 147.758 185.885 147.758 185.296C147.758 184.706 147.758 183.876 147.758 182.787C147.758 180.581 147.758 177.358 147.714 173.224C147.714 164.956 147.66 153.063 147.615 138.492L147.803 138.671L68.8118 138.724L69.0439 138.492C69.0439 155.385 69.0439 171.528 69.0439 186.162L68.8297 185.947L125.633 186.054L141.946 186.108H147.821H142.044L125.776 186.162L68.8297 186.269H68.6154V186.188C68.6154 171.519 68.6154 155.412 68.6154 138.519V138.287L148.017 138.34V138.519C147.973 153.144 147.946 165.072 147.919 173.34C147.919 177.456 147.919 180.662 147.874 182.858C147.874 183.929 147.874 184.76 147.874 185.331C147.874 185.903 147.758 186.188 147.758 186.188Z" fill="#263238"/>
<path d="M70.9011 186.224L93.7493 156.778L110.258 175.635L122.901 164.26L145.883 186.224H70.9011Z" fill="black"/>
<path d="M115.374 153.278C115.374 154.286 115.075 155.272 114.515 156.11C113.955 156.948 113.159 157.602 112.227 157.988C111.296 158.374 110.27 158.475 109.282 158.278C108.293 158.081 107.384 157.596 106.671 156.883C105.958 156.17 105.473 155.261 105.276 154.272C105.079 153.283 105.18 152.258 105.566 151.327C105.952 150.395 106.605 149.599 107.444 149.039C108.282 148.478 109.268 148.179 110.276 148.179C110.946 148.179 111.609 148.311 112.227 148.568C112.846 148.824 113.408 149.199 113.881 149.673C114.355 150.146 114.73 150.708 114.986 151.327C115.242 151.945 115.374 152.608 115.374 153.278Z" fill="black"/>
<path d="M206.892 134.519C206.892 134.644 195.955 134.751 182.464 134.751C168.973 134.751 158.026 134.644 158.026 134.519C158.026 134.394 168.964 134.287 182.464 134.287C195.964 134.287 206.892 134.403 206.892 134.519Z" fill="#263238"/>
<path d="M206.892 143.179C206.892 143.304 195.955 143.412 182.464 143.412C168.973 143.412 158.026 143.304 158.026 143.179C158.026 143.054 168.964 142.947 182.464 142.947C195.964 142.947 206.892 143.046 206.892 143.179Z" fill="#263238"/>
<path d="M205.107 180.876C205.107 181.001 194.169 181.108 180.678 181.108C167.187 181.108 156.24 181.001 156.24 180.876C156.24 180.751 167.178 180.644 180.678 180.644C194.178 180.644 205.107 180.742 205.107 180.876Z" fill="#263238"/>
<path d="M205.107 190.653C205.107 190.778 194.169 190.885 180.678 190.885C167.187 190.885 156.24 190.778 156.24 190.653C156.24 190.528 167.178 190.421 180.678 190.421C194.178 190.421 205.107 190.519 205.107 190.653Z" fill="#263238"/>
<path d="M190.901 151.84C190.901 151.965 183.535 152.072 174.446 152.072C165.357 152.072 157.99 151.965 157.99 151.84C157.99 151.715 165.357 151.608 174.446 151.608C183.535 151.608 190.901 151.715 190.901 151.84Z" fill="#263238"/>
<path d="M207.223 151.742C205.184 151.972 203.13 152.049 201.08 151.974C199.029 152.049 196.976 151.972 194.937 151.742C196.976 151.507 199.029 151.429 201.08 151.51C203.13 151.429 205.184 151.507 207.223 151.742Z" fill="#263238"/>
<path d="M207.223 161.34C207.223 161.465 199.892 161.572 190.839 161.572C181.785 161.572 174.446 161.465 174.446 161.34C174.446 161.215 181.785 161.108 190.839 161.108C199.892 161.108 207.223 161.188 207.223 161.34Z" fill="#263238"/>
<path d="M190.901 171.01C190.901 171.144 183.535 171.242 174.446 171.242C165.357 171.242 157.99 171.144 157.99 171.01C157.99 170.876 165.357 170.778 174.446 170.778C183.535 170.778 190.901 170.912 190.901 171.01Z" fill="#263238"/>
<path d="M207.223 170.938C205.184 171.168 203.13 171.246 201.08 171.171C199.029 171.246 196.976 171.168 194.937 170.938C196.976 170.709 199.029 170.631 201.08 170.706C203.13 170.631 205.184 170.709 207.223 170.938Z" fill="#263238"/>
<path d="M167.946 161.117C166.449 161.346 164.932 161.424 163.419 161.349C161.906 161.424 160.39 161.346 158.892 161.117C160.39 160.888 161.906 160.81 163.419 160.885C164.932 160.81 166.449 160.888 167.946 161.117Z" fill="#263238"/>
<path d="M154.883 243.331C154.883 243.465 134.598 243.572 109.589 243.572C84.5797 243.572 64.285 243.465 64.285 243.331C64.285 243.197 84.5618 243.099 109.589 243.099C134.615 243.099 154.883 243.18 154.883 243.331Z" fill="#263238"/>
<path d="M156.249 253.76C156.249 253.885 135.964 253.992 110.946 253.992C85.9279 253.992 65.6422 253.885 65.6422 253.76C65.6422 253.635 85.919 253.528 110.946 253.528C135.973 253.528 156.249 253.626 156.249 253.76Z" fill="#263238"/>
<path d="M213.749 41.849H42.6243V267.331H213.749V41.849Z" fill="white"/>
<path d="M213.758 267.331C213.758 265.483 213.669 175.492 213.544 41.849L213.758 42.0544H42.6511L42.8832 41.8222C42.8832 125.706 42.8832 203.501 42.8832 267.305L42.6868 267.108L213.821 267.305L42.6064 267.519H42.4189V267.331C42.4189 203.528 42.4189 125.733 42.3743 41.849V41.6169H213.946V41.8311C213.839 175.474 213.758 265.483 213.758 267.331Z" fill="#263238"/>
<path d="M213.758 58.3222C213.758 58.3937 175.446 58.4562 128.196 58.4562C80.9458 58.4562 42.6064 58.3937 42.6064 58.3222C42.6064 58.2508 80.91 58.1883 128.178 58.1883C175.446 58.1883 213.758 58.2419 213.758 58.3222Z" fill="#263238"/>
<path d="M161.357 50.6169C161.357 50.6883 148.294 50.7508 132.169 50.7508C116.044 50.7508 102.981 50.6883 102.981 50.6169C102.981 50.5454 115.999 50.474 132.124 50.474C148.249 50.474 161.357 50.5365 161.357 50.6169Z" fill="#455A64"/>
<path d="M49.2939 52.5097C50.3393 52.5097 51.1868 51.6623 51.1868 50.6169C51.1868 49.5715 50.3393 48.724 49.2939 48.724C48.2485 48.724 47.4011 49.5715 47.4011 50.6169C47.4011 51.6623 48.2485 52.5097 49.2939 52.5097Z" fill="#E0E0E0"/>
<path d="M57.5975 50.6169C57.5905 50.9896 57.4735 51.352 57.2613 51.6586C57.0491 51.9651 56.7511 52.2022 56.4046 52.34C56.0582 52.4778 55.6788 52.5102 55.314 52.4332C54.9492 52.3562 54.6152 52.1731 54.3541 51.907C54.0929 51.6409 53.9162 51.3037 53.846 50.9375C53.7758 50.5713 53.8153 50.1926 53.9596 49.8488C54.1038 49.505 54.3464 49.2114 54.6568 49.005C54.9673 48.7985 55.3318 48.6884 55.7047 48.6883C55.9563 48.6882 56.2054 48.7384 56.4374 48.8357C56.6694 48.9331 56.8797 49.0757 57.0559 49.2553C57.2321 49.4348 57.3708 49.6477 57.4638 49.8815C57.5568 50.1153 57.6023 50.3653 57.5975 50.6169Z" fill="#E0E0E0"/>
<path d="M64.035 50.6169C64.028 50.9889 63.9115 51.3506 63.7 51.6567C63.4886 51.9629 63.1916 52.1999 62.8462 52.3382C62.5008 52.4766 62.1223 52.51 61.758 52.4345C61.3937 52.3589 61.0597 52.1776 60.7978 51.9133C60.536 51.649 60.3578 51.3133 60.2856 50.9483C60.2134 50.5833 60.2504 50.2051 60.3919 49.861C60.5335 49.5169 60.7733 49.2222 61.0814 49.0136C61.3895 48.805 61.7522 48.6919 62.1243 48.6883C62.3777 48.6846 62.6293 48.7321 62.864 48.828C63.0986 48.9238 63.3115 49.066 63.4899 49.2461C63.6683 49.4262 63.8086 49.6404 63.9022 49.8759C63.9959 50.1114 64.041 50.3635 64.035 50.6169Z" fill="#E0E0E0"/>
<path d="M107.731 81.358H103.812L103.062 83.1437H101.053L104.821 74.6972H106.749L110.526 83.1437H108.481L107.731 81.358ZM107.115 79.8758L105.776 76.6437L104.437 79.8758H107.115Z" fill="#455A64"/>
<path d="M116.785 83.1705L115.16 80.8312H113.374V83.1883H111.419V74.7419H115.071C117.33 74.7419 118.74 75.9115 118.74 77.8044C118.765 78.3766 118.611 78.9422 118.299 79.4224C117.987 79.9026 117.532 80.2734 116.999 80.483L118.901 83.1615L116.785 83.1705ZM114.928 76.3133H113.339V79.2597H114.928C116.124 79.2597 116.714 78.7062 116.714 77.7865C116.714 76.8669 116.151 76.3133 114.928 76.3133Z" fill="#455A64"/>
<path d="M121.901 76.3133H119.223V74.724H126.535V76.3133H123.857V83.1705H121.901V76.3133Z" fill="#455A64"/>
<path d="M127.607 74.724H129.562V83.1705H127.607V74.724Z" fill="#455A64"/>
<path d="M130.999 78.9472C131.059 78.0424 131.382 77.1748 131.928 76.451C132.474 75.7273 133.22 75.179 134.074 74.8735C134.928 74.568 135.852 74.5188 136.734 74.7317C137.615 74.9447 138.415 75.4106 139.035 76.0722L137.776 77.233C137.52 76.9174 137.196 76.6643 136.828 76.4926C136.46 76.3209 136.057 76.2351 135.651 76.2419C134.941 76.2419 134.259 76.5241 133.757 77.0264C133.255 77.5287 132.973 78.2101 132.973 78.9205C132.973 79.6309 133.255 80.3122 133.757 80.8145C134.259 81.3168 134.941 81.599 135.651 81.599C136.058 81.6047 136.461 81.5176 136.829 81.3443C137.197 81.1711 137.521 80.9162 137.776 80.599L139.035 81.7597C138.418 82.4247 137.619 82.8942 136.738 83.1102C135.857 83.3263 134.932 83.2795 134.077 82.9755C133.222 82.6716 132.475 82.1239 131.928 81.4C131.381 80.6762 131.058 79.8079 130.999 78.9026V78.9472Z" fill="#455A64"/>
<path d="M140.41 74.724H142.365V81.5722H146.598V83.1705H140.41V74.724Z" fill="#455A64"/>
<path d="M154.214 81.599V83.1705H147.696V74.724H154.08V76.2865H149.615V78.1526H153.535V79.6705H149.615V81.6258L154.214 81.599Z" fill="#455A64"/>
<path d="M96.8833 79.6972C96.8833 79.7776 87.8207 79.8401 76.6511 79.8401C65.4814 79.8401 56.4189 79.7776 56.4189 79.6972C56.4189 79.6169 65.4725 79.5633 76.6511 79.5633C87.8297 79.5633 96.8833 79.6258 96.8833 79.6972Z" fill="#263238"/>
<path d="M204.464 79.6972C204.464 79.7776 194.955 79.8401 183.232 79.8401C171.508 79.8401 161.982 79.7776 161.982 79.6972C161.982 79.6169 171.49 79.5633 183.232 79.5633C194.973 79.5633 204.464 79.6258 204.464 79.6972Z" fill="#263238"/>
<path d="M196.794 216.296H155.758V256.001H196.794V216.296Z" fill="#455A64"/>
<path d="M158.946 252.599L170.294 232.171L179.58 245.233L185.223 238.296L193.615 252.599H158.946Z" fill="black"/>
<path d="M182.785 226.028C185.196 229.197 181.615 232.769 178.455 230.358C176.017 227.197 179.589 223.626 182.785 226.028Z" fill="black"/>
<path d="M193.615 252.715C193.615 252.715 193.615 252.653 193.615 252.546C193.615 252.438 193.615 252.278 193.615 252.09C193.615 251.662 193.615 251.063 193.615 250.305C193.615 248.733 193.615 246.456 193.571 243.563C193.571 237.769 193.571 229.51 193.49 219.59L193.651 219.76H158.982C158.937 219.805 159.348 219.394 159.178 219.572V224.037C159.178 225.528 159.178 227.001 159.178 228.456V237.081C159.178 242.644 159.178 247.903 159.178 252.742L159.008 252.572L184.08 252.653H193.508H191.223L184.187 252.697L159.008 252.787H158.839V252.617C158.839 247.778 158.839 242.519 158.839 236.956C158.839 234.179 158.839 231.322 158.839 228.403V219.474C158.66 219.644 159.071 219.224 159.035 219.269H193.874V219.438C193.874 229.403 193.812 237.697 193.794 243.546C193.794 246.421 193.794 248.688 193.794 250.251C193.794 251.01 193.794 251.59 193.794 252.037C193.794 252.215 193.794 252.367 193.794 252.483C193.794 252.599 193.624 252.715 193.615 252.715Z" fill="black"/>
<path d="M96.1779 94.7419C96.1779 94.8669 87.2493 94.974 76.1332 94.974C65.0172 94.974 56.0975 94.8669 56.0975 94.7419C56.0975 94.6169 65.0261 94.5098 76.1332 94.5098C87.2404 94.5098 96.1779 94.608 96.1779 94.7419Z" fill="#263238"/>
<path d="M127.089 104.358C127.089 104.483 111.196 104.59 91.5975 104.59C71.9993 104.59 56.0975 104.483 56.0975 104.358C56.0975 104.233 71.9815 104.126 91.5975 104.126C111.214 104.126 127.089 104.233 127.089 104.358Z" fill="#263238"/>
<path d="M151.357 103.653C151.357 103.787 147.053 103.885 141.74 103.885C136.428 103.885 132.124 103.787 132.124 103.653C132.124 103.519 136.428 103.42 141.74 103.42C147.053 103.42 151.357 103.528 151.357 103.653Z" fill="#263238"/>
<path d="M198.428 103.242C198.428 103.376 189.499 103.483 178.58 103.483C167.66 103.483 158.732 103.376 158.732 103.242C158.732 103.108 167.615 103.01 178.58 103.01C189.544 103.01 198.428 103.153 198.428 103.242Z" fill="#263238"/>
<path d="M198.017 111.429C198.017 111.563 166.133 111.662 126.812 111.662C87.4904 111.662 55.5886 111.563 55.5886 111.429C55.5886 111.295 87.4725 111.197 126.812 111.197C166.151 111.197 198.017 111.304 198.017 111.429Z" fill="#263238"/>
<path d="M121.892 120.028C121.892 120.153 107.142 120.26 88.9458 120.26C70.7493 120.26 55.9993 120.117 55.9993 120.028C55.9993 119.938 70.7493 119.795 88.9458 119.795C107.142 119.795 121.892 119.894 121.892 120.028Z" fill="#263238"/>
<path d="M146.044 120.028C143.047 120.258 140.04 120.335 137.035 120.26C134.033 120.335 131.029 120.258 128.035 120.028C131.029 119.792 134.033 119.715 137.035 119.795C140.04 119.715 143.047 119.792 146.044 120.028Z" fill="#263238"/>
<path d="M198.017 119.224C198.017 119.358 187.66 119.456 174.892 119.456C162.124 119.456 151.767 119.358 151.767 119.224C151.767 119.09 162.124 118.992 174.892 118.992C187.66 118.992 198.017 119.081 198.017 119.224Z" fill="#263238"/>
<path d="M126.196 193.671C126.196 193.796 110.303 193.903 90.6958 193.903C71.0886 193.903 55.1957 193.796 55.1957 193.671C55.1957 193.546 71.0886 193.438 90.6958 193.438C110.303 193.438 126.196 193.537 126.196 193.671Z" fill="#263238"/>
<path d="M150.464 192.965C150.464 193.09 146.16 193.197 140.848 193.197C135.535 193.197 131.232 193.09 131.232 192.965C131.232 192.84 135.535 192.733 140.848 192.733C146.16 192.733 150.464 192.84 150.464 192.965Z" fill="#263238"/>
<path d="M197.526 192.554C197.526 192.688 188.642 192.787 177.678 192.787C166.714 192.787 157.83 192.688 157.83 192.554C157.83 192.421 166.714 192.322 177.678 192.322C188.642 192.322 197.526 192.438 197.526 192.554Z" fill="#263238"/>
<path d="M197.115 200.742C197.115 200.867 165.232 200.974 125.91 200.974C86.5886 200.974 54.6957 200.867 54.6957 200.742C54.6957 200.617 86.5708 200.51 125.91 200.51C165.249 200.51 197.115 200.617 197.115 200.742Z" fill="#263238"/>
<path d="M120.999 209.34C120.999 209.465 106.249 209.572 88.0529 209.572C69.8564 209.572 55.1064 209.465 55.1064 209.34C55.1064 209.215 69.8564 209.108 88.0529 209.108C106.249 209.108 120.999 209.206 120.999 209.34Z" fill="#263238"/>
<path d="M145.142 209.34C142.148 209.57 139.144 209.648 136.142 209.572C133.137 209.648 130.13 209.57 127.133 209.34C130.13 209.105 133.137 209.027 136.142 209.108C139.144 209.027 142.148 209.105 145.142 209.34Z" fill="#263238"/>
<path d="M197.115 208.51C197.115 208.635 186.767 208.742 173.999 208.742C161.232 208.742 150.874 208.635 150.874 208.51C150.874 208.385 161.223 208.278 173.999 208.278C186.776 208.278 197.115 208.394 197.115 208.51Z" fill="#263238"/>
<path d="M146.044 218.769C146.044 218.894 125.919 219.001 101.098 219.001C76.2761 219.001 56.1511 218.894 56.1511 218.769C56.1511 218.644 76.2672 218.537 101.098 218.537C125.928 218.537 146.044 218.635 146.044 218.769Z" fill="#263238"/>
<path d="M145.142 228.197C145.142 228.322 125.062 228.43 100.294 228.43C75.5261 228.43 55.4368 228.322 55.4368 228.197C55.4368 228.072 75.5172 227.965 100.294 227.965C125.071 227.965 145.142 228.063 145.142 228.197Z" fill="#263238"/>
<path d="M142.66 129.126H55.4993V184.778H142.66V129.126Z" fill="#0066CC"/>
<path d="M138.91 180.349C138.91 180.349 138.91 180.046 138.91 179.456C138.91 178.867 138.91 178.046 138.91 176.947C138.91 174.742 138.91 171.519 138.91 167.394C138.91 159.126 138.848 147.233 138.812 132.662L138.99 132.84L60.0082 132.894L60.2404 132.662C60.2404 149.546 60.2404 165.697 60.2404 180.331L60.0261 180.108L116.839 180.215L133.151 180.278H139.017H133.24L116.981 180.34L60.0261 180.447H59.8118V180.233C59.8118 165.563 59.8118 149.447 59.8118 132.563V132.331L139.223 132.376V132.563C139.223 147.179 139.151 159.108 139.133 167.385C139.133 171.501 139.133 174.706 139.089 176.903C139.089 177.983 139.089 178.804 139.089 179.376C139.089 179.947 138.91 180.349 138.91 180.349Z" fill="#263238"/>
<path d="M62.0529 180.349L84.91 150.903L101.419 169.76L114.053 158.385L137.035 180.349H62.0529Z" fill="black"/>
<path d="M106.526 147.394C106.528 148.403 106.23 149.39 105.671 150.23C105.111 151.069 104.315 151.724 103.383 152.111C102.451 152.498 101.425 152.6 100.435 152.403C99.4457 152.207 98.5365 151.721 97.8229 151.008C97.1094 150.294 96.6236 149.385 96.4272 148.395C96.2308 147.405 96.3325 146.379 96.7195 145.448C97.1065 144.516 97.7613 143.719 98.6011 143.16C99.4408 142.6 100.428 142.303 101.437 142.304C102.786 142.307 104.079 142.844 105.033 143.798C105.987 144.752 106.524 146.045 106.526 147.394Z" fill="black"/>
<path d="M198.017 128.635C198.017 128.769 187.08 128.867 173.58 128.867C160.08 128.867 149.151 128.769 149.151 128.635C149.151 128.501 160.089 128.403 173.58 128.403C187.071 128.403 198.017 128.51 198.017 128.635Z" fill="#263238"/>
<path d="M198.017 137.296C198.017 137.429 187.08 137.528 173.58 137.528C160.08 137.528 149.151 137.429 149.151 137.296C149.151 137.162 160.089 137.063 173.58 137.063C187.071 137.063 198.017 137.171 198.017 137.296Z" fill="#263238"/>
<path d="M196.267 174.992C196.267 175.126 185.321 175.224 171.83 175.224C158.339 175.224 147.401 175.126 147.401 174.992C147.401 174.858 158.339 174.76 171.83 174.76C185.321 174.76 196.267 174.867 196.267 174.992Z" fill="#263238"/>
<path d="M196.267 184.769C196.267 184.903 185.321 185.001 171.83 185.001C158.339 185.001 147.401 184.903 147.401 184.769C147.401 184.635 158.339 184.537 171.83 184.537C185.321 184.537 196.267 184.644 196.267 184.769Z" fill="#263238"/>
<path d="M182.053 145.956C182.053 146.09 174.687 146.188 165.607 146.188C156.526 146.188 149.151 146.09 149.151 145.956C149.151 145.822 156.517 145.724 165.607 145.724C174.696 145.724 182.053 145.831 182.053 145.956Z" fill="#263238"/>
<path d="M198.383 145.858C196.345 146.093 194.291 146.171 192.24 146.09C190.19 146.171 188.136 146.093 186.098 145.858C188.137 145.628 190.19 145.551 192.24 145.626C194.291 145.551 196.344 145.628 198.383 145.858Z" fill="#263238"/>
<path d="M198.383 155.456C198.383 155.59 191.044 155.688 181.99 155.688C172.937 155.688 165.598 155.59 165.598 155.456C165.598 155.322 172.937 155.224 181.99 155.224C191.044 155.224 198.383 155.331 198.383 155.456Z" fill="#263238"/>
<path d="M182.053 165.162C182.053 165.287 174.687 165.394 165.607 165.394C156.526 165.394 149.151 165.287 149.151 165.162C149.151 165.037 156.517 164.929 165.607 164.929C174.696 164.929 182.053 165.028 182.053 165.162Z" fill="#263238"/>
<path d="M198.383 165.063C196.344 165.293 194.291 165.371 192.24 165.296C190.19 165.371 188.137 165.293 186.098 165.063C188.136 164.822 190.19 164.742 192.24 164.822C194.291 164.742 196.345 164.822 198.383 165.063Z" fill="#263238"/>
<path d="M159.098 155.233C157.601 155.468 156.084 155.545 154.571 155.465C153.058 155.545 151.541 155.468 150.044 155.233C151.541 155.004 153.058 154.926 154.571 155.001C156.084 154.926 157.6 155.004 159.098 155.233Z" fill="#263238"/>
<path d="M146.044 237.43C146.044 237.555 125.758 237.662 100.74 237.662C75.7225 237.662 55.4368 237.555 55.4368 237.43C55.4368 237.305 75.7136 237.197 100.74 237.197C125.767 237.197 146.044 237.305 146.044 237.43Z" fill="#263238"/>
<path d="M147.401 247.876C147.401 248.01 127.115 248.108 102.106 248.108C77.0975 248.108 56.8029 248.01 56.8029 247.876C56.8029 247.742 77.0797 247.644 102.106 247.644C127.133 247.644 147.401 247.796 147.401 247.876Z" fill="#263238"/>
<path d="M205.249 33.3401H34.1243V258.822H205.249V33.3401Z" fill="white"/>
<path d="M205.249 258.822C205.249 256.974 205.169 166.983 205.044 33.3401L205.249 33.5544H34.1421L34.3743 33.3222C34.3743 117.251 34.3743 195.01 34.3743 258.805L34.1868 258.617L205.312 258.805L34.1868 258.992H33.9903V258.805C33.9903 195.01 33.9903 117.215 33.9903 33.3222V33.0901H205.562V33.2954C205.339 166.983 205.249 256.974 205.249 258.822Z" fill="#263238"/>
<path d="M205.249 49.8133C205.249 49.8937 166.937 49.9561 119.687 49.9561C72.4368 49.9561 34.1243 49.8937 34.1243 49.8133C34.1243 49.7329 72.4279 49.6794 119.687 49.6794C166.946 49.6794 205.249 49.7419 205.249 49.8133Z" fill="#263238"/>
<path d="M152.812 42.1079C152.812 42.1883 139.74 42.2419 123.615 42.2419C107.49 42.2419 94.3922 42.1883 94.3922 42.1079C94.3922 42.0276 107.464 41.974 123.58 41.974C139.696 41.974 152.812 42.0365 152.812 42.1079Z" fill="#455A64"/>
<path d="M40.785 44.0008C41.8304 44.0008 42.6779 43.1533 42.6779 42.1079C42.6779 41.0625 41.8304 40.2151 40.785 40.2151C39.7396 40.2151 38.8921 41.0625 38.8921 42.1079C38.8921 43.1533 39.7396 44.0008 40.785 44.0008Z" fill="#E0E0E0"/>
<path d="M49.0886 42.1079C49.0886 42.4823 48.9776 42.8483 48.7696 43.1595C48.5616 43.4708 48.2659 43.7134 47.9201 43.8567C47.5742 44 47.1936 44.0375 46.8264 43.9644C46.4593 43.8914 46.122 43.7111 45.8573 43.4464C45.5925 43.1817 45.4123 42.8444 45.3392 42.4772C45.2662 42.11 45.3037 41.7294 45.4469 41.3836C45.5902 41.0377 45.8328 40.7421 46.1441 40.5341C46.4554 40.3261 46.8213 40.2151 47.1957 40.2151C47.6977 40.2151 48.1792 40.4145 48.5342 40.7695C48.8891 41.1245 49.0886 41.6059 49.0886 42.1079Z" fill="#E0E0E0"/>
<path d="M55.5082 42.1079C55.5082 42.4823 55.3972 42.8483 55.1892 43.1595C54.9812 43.4708 54.6856 43.7134 54.3397 43.8567C53.9939 44 53.6133 44.0375 53.2461 43.9644C52.8789 43.8914 52.5416 43.7111 52.2769 43.4464C52.0122 43.1817 51.8319 42.8444 51.7589 42.4772C51.6858 42.11 51.7233 41.7294 51.8666 41.3836C52.0099 41.0377 52.2525 40.7421 52.5637 40.5341C52.875 40.3261 53.241 40.2151 53.6154 40.2151C54.1174 40.2151 54.5988 40.4145 54.9538 40.7695C55.3088 41.1245 55.5082 41.6059 55.5082 42.1079Z" fill="#E0E0E0"/>
<path d="M99.2226 72.849H95.285L94.5351 74.6347H92.535L96.294 66.1883H98.2315L102.008 74.6347H99.9547L99.2226 72.849ZM98.6065 71.3669L97.2672 68.1347L95.9279 71.3669H98.6065Z" fill="#455A64"/>
<path d="M108.285 74.6615L106.651 72.3044H104.865V74.6615H102.91V66.2151H106.562C108.821 66.2151 110.231 67.3847 110.231 69.2776C110.257 69.8487 110.104 70.4136 109.793 70.8937C109.483 71.3738 109.031 71.7451 108.499 71.9562L110.392 74.6347L108.285 74.6615ZM106.446 67.8044H104.856V70.7508H106.446C107.642 70.7508 108.231 70.1972 108.231 69.2776C108.231 68.3579 107.642 67.8044 106.446 67.8044Z" fill="#455A64"/>
<path d="M113.392 67.8044H110.714V66.2151H118.071V67.8044H115.392V74.6615H113.437L113.392 67.8044Z" fill="#455A64"/>
<path d="M119.106 66.2151H121.062V74.6615H119.106V66.2151Z" fill="#455A64"/>
<path d="M122.526 70.4383C122.586 69.5335 122.909 68.6659 123.455 67.9421C124.001 67.2184 124.747 66.67 125.601 66.3646C126.455 66.0591 127.379 66.0098 128.26 66.2228C129.142 66.4358 129.942 66.9017 130.562 67.5633L129.303 68.724C129.048 68.4097 128.725 68.1572 128.359 67.9856C127.992 67.8139 127.592 67.7276 127.187 67.733C126.469 67.733 125.781 68.018 125.274 68.5253C124.767 69.0327 124.481 69.7208 124.481 70.4383C124.481 71.1558 124.767 71.8439 125.274 72.3513C125.781 72.8586 126.469 73.1437 127.187 73.1437C127.592 73.148 127.993 73.0602 128.36 72.887C128.726 72.7138 129.049 72.4596 129.303 72.1437L130.562 73.2955C129.945 73.9604 129.146 74.4299 128.265 74.6459C127.384 74.862 126.459 74.8152 125.604 74.5112C124.749 74.2073 124.002 73.6596 123.455 72.9357C122.908 72.2119 122.585 71.3436 122.526 70.4383Z" fill="#455A64"/>
<path d="M131.892 66.2151H133.848V73.0722H138.08V74.6615H131.892V66.2151Z" fill="#455A64"/>
<path d="M145.732 73.0901V74.6615H139.187V66.2151H145.571V67.7865H141.107V69.5722H145.026V71.0901H141.107V73.0455L145.732 73.0901Z" fill="#455A64"/>
<path d="M88.3743 71.1972C88.3743 71.2687 79.3207 71.3312 68.1422 71.3312C56.9636 71.3312 47.91 71.2687 47.91 71.1972C47.91 71.1258 56.9725 71.0544 68.1422 71.0544C79.3118 71.0544 88.3743 71.1169 88.3743 71.1972Z" fill="#263238"/>
<path d="M195.964 71.1972C195.964 71.2687 186.446 71.3312 174.723 71.3312C162.999 71.3312 153.482 71.2687 153.482 71.1972C153.482 71.1258 162.99 71.0544 174.723 71.0544C186.455 71.0544 195.964 71.1169 195.964 71.1972Z" fill="#263238"/>
<path d="M188.294 207.787H147.258V247.492H188.294V207.787Z" fill="#455A64"/>
<path d="M150.437 244.099L161.794 223.662L171.08 236.724L176.723 229.787L185.115 244.099H150.437Z" fill="black"/>
<path d="M174.24 217.528C176.651 220.688 173.08 224.26 169.91 221.849C167.508 218.688 171.08 215.117 174.24 217.528Z" fill="black"/>
<path d="M185.115 244.224C185.106 244.171 185.106 244.117 185.115 244.063C185.115 243.938 185.115 243.787 185.115 243.599C185.115 243.171 185.115 242.581 185.115 241.813C185.115 240.233 185.115 237.956 185.115 235.063C185.115 229.269 185.062 221.01 185.026 211.09L185.196 211.26H150.517L150.714 211.072V220.001C150.714 222.921 150.714 225.778 150.714 228.563C150.714 234.117 150.714 239.376 150.714 244.215L150.544 244.046L175.615 244.126L182.687 244.171H184.562H182.723L175.687 244.215L150.508 244.305H150.339V244.224C150.339 239.385 150.339 234.126 150.339 228.572C150.339 225.787 150.339 222.93 150.339 220.01V211.081C150.169 211.251 150.58 210.84 150.535 210.876H185.383V211.037C185.383 221.001 185.312 229.296 185.294 235.144C185.294 238.019 185.294 240.287 185.294 241.849C185.294 242.608 185.294 243.188 185.294 243.635C185.294 243.822 185.294 243.965 185.294 244.081C185.294 244.197 185.115 244.224 185.115 244.224Z" fill="black"/>
<path d="M87.669 86.233C87.669 86.358 78.7404 86.4651 67.6332 86.4651C56.5261 86.4651 47.5886 86.358 47.5886 86.233C47.5886 86.108 56.5171 86.0008 67.6332 86.0008C78.7493 86.0008 87.669 86.099 87.669 86.233Z" fill="#263238"/>
<path d="M118.58 95.8491C118.58 95.983 102.687 96.0812 83.0886 96.0812C63.4904 96.0812 47.5886 95.983 47.5886 95.8491C47.5886 95.7151 63.4814 95.6169 83.0886 95.6169C102.696 95.6169 118.58 95.7241 118.58 95.8491Z" fill="#263238"/>
<path d="M142.857 95.1169C142.857 95.2419 138.544 95.349 133.24 95.349C127.937 95.349 123.615 95.2419 123.615 95.1169C123.615 94.9919 127.928 94.8848 133.24 94.8848C138.553 94.8848 142.857 95.0187 142.857 95.1169Z" fill="#263238"/>
<path d="M189.928 94.7419C189.928 94.8669 180.999 94.974 170.08 94.974C159.16 94.974 150.232 94.8669 150.232 94.7419C150.232 94.6169 159.115 94.5098 170.08 94.5098C181.044 94.5098 189.928 94.608 189.928 94.7419Z" fill="#263238"/>
<path d="M189.508 102.92C189.508 103.054 157.624 103.162 118.303 103.162C78.9815 103.162 47.0707 103.054 47.0707 102.92C47.0707 102.787 78.9457 102.688 118.285 102.688C157.624 102.688 189.508 102.795 189.508 102.92Z" fill="#263238"/>
<path d="M113.383 111.519C113.383 111.644 98.6333 111.751 80.4457 111.751C62.2582 111.751 47.4993 111.644 47.4993 111.519C47.4993 111.394 62.2404 111.287 80.4457 111.287C98.6511 111.287 113.383 111.394 113.383 111.519Z" fill="#263238"/>
<path d="M137.535 111.519C134.538 111.749 131.531 111.826 128.526 111.751C125.524 111.826 122.52 111.749 119.526 111.519C122.52 111.289 125.524 111.211 128.526 111.287C131.531 111.211 134.538 111.289 137.535 111.519Z" fill="#263238"/>
<path d="M189.508 110.697C189.508 110.831 179.16 110.929 166.383 110.929C153.607 110.929 143.258 110.831 143.258 110.697C143.258 110.563 153.615 110.465 166.383 110.465C179.151 110.465 189.508 110.572 189.508 110.697Z" fill="#263238"/>
<path d="M117.687 185.162C117.687 185.287 101.794 185.394 82.1868 185.394C62.5797 185.394 46.6957 185.287 46.6957 185.162C46.6957 185.037 62.5797 184.929 82.1868 184.929C101.794 184.929 117.687 185.037 117.687 185.162Z" fill="#263238"/>
<path d="M141.955 184.456C141.955 184.59 137.651 184.688 132.339 184.688C127.026 184.688 122.723 184.59 122.723 184.456C122.723 184.322 127.026 184.224 132.339 184.224C137.651 184.224 141.955 184.331 141.955 184.456Z" fill="#263238"/>
<path d="M189.035 184.054C189.035 184.179 180.107 184.287 169.187 184.287C158.267 184.287 149.33 184.179 149.33 184.054C149.33 183.929 158.258 183.813 169.187 183.813C180.115 183.813 189.035 183.921 189.035 184.054Z" fill="#263238"/>
<path d="M188.615 192.233C188.615 192.367 156.732 192.465 117.401 192.465C78.0708 192.465 46.1779 192.367 46.1779 192.233C46.1779 192.099 78.0618 192.001 117.392 192.001C156.723 192.001 188.615 192.108 188.615 192.233Z" fill="#263238"/>
<path d="M112.49 200.831C112.49 200.956 97.7404 201.063 79.544 201.063C61.3475 201.063 46.5975 200.956 46.5975 200.831C46.5975 200.706 61.3475 200.599 79.544 200.599C97.7404 200.599 112.49 200.697 112.49 200.831Z" fill="#263238"/>
<path d="M136.633 200.831C133.639 201.061 130.635 201.139 127.633 201.063C124.631 201.139 121.627 201.061 118.633 200.831C121.627 200.596 124.631 200.518 127.633 200.599C130.635 200.518 133.639 200.596 136.633 200.831Z" fill="#263238"/>
<path d="M188.615 200.01C188.615 200.144 178.258 200.242 165.49 200.242C152.723 200.242 142.365 200.144 142.365 200.01C142.365 199.876 152.714 199.778 165.49 199.778C178.267 199.778 188.615 199.885 188.615 200.01Z" fill="#263238"/>
<path d="M137.535 210.296C137.535 210.421 117.41 210.528 92.5886 210.528C67.7672 210.528 47.6421 210.421 47.6421 210.296C47.6421 210.171 67.7582 210.063 92.5886 210.063C117.419 210.063 137.535 210.135 137.535 210.296Z" fill="#263238"/>
<path d="M136.633 219.688C136.633 219.813 116.553 219.921 91.785 219.921C67.0172 219.921 46.9279 219.813 46.9279 219.688C46.9279 219.563 67.0082 219.456 91.785 219.456C116.562 219.456 136.633 219.563 136.633 219.688Z" fill="#263238"/>
<path d="M134.151 120.617H46.9904V176.269H134.151V120.617Z" fill="#0066CC"/>
<path d="M130.401 171.84C130.401 171.84 130.401 171.537 130.401 170.947C130.401 170.358 130.401 169.537 130.401 168.447C130.401 166.242 130.401 163.019 130.401 158.885C130.401 150.617 130.348 138.724 130.303 124.153L130.482 124.331L51.4993 124.385L51.7314 124.153C51.7314 141.037 51.7314 157.188 51.7314 171.822L51.5171 171.608L108.321 171.706L124.633 171.769H130.499H124.731L108.464 171.822L51.5171 171.929H51.2939V171.715C51.2939 157.046 51.2939 140.929 51.2939 124.045V123.813L130.705 123.867V124.045C130.705 138.662 130.633 150.599 130.607 158.867C130.607 162.983 130.607 166.197 130.562 168.394C130.562 169.465 130.562 170.296 130.562 170.867C130.562 171.438 130.401 171.84 130.401 171.84Z" fill="#263238"/>
<path d="M53.5529 171.84L76.4011 142.394L92.91 161.251L105.544 149.876L128.526 171.84H53.5529Z" fill="black"/>
<path d="M98.0172 138.867C98.0189 139.876 97.7212 140.863 97.1617 141.703C96.6022 142.542 95.806 143.197 94.8741 143.584C93.9422 143.971 92.9163 144.073 91.9266 143.877C90.9368 143.68 90.0275 143.194 89.314 142.481C88.6005 141.767 88.1147 140.858 87.9183 139.868C87.7219 138.878 87.8236 137.853 88.2105 136.921C88.5975 135.989 89.2524 135.193 90.0921 134.633C90.9319 134.074 91.9188 133.776 92.9279 133.778C94.2769 133.78 95.57 134.317 96.524 135.271C97.4779 136.225 98.0148 137.518 98.0172 138.867Z" fill="black"/>
<path d="M189.508 120.117C189.508 120.251 178.571 120.358 165.08 120.358C151.589 120.358 140.642 120.251 140.642 120.117C140.642 119.983 151.58 119.885 165.08 119.885C178.58 119.885 189.508 120.001 189.508 120.117Z" fill="#263238"/>
<path d="M189.508 128.796C189.508 128.921 178.571 129.028 165.08 129.028C151.589 129.028 140.642 128.921 140.642 128.796C140.642 128.671 151.58 128.563 165.08 128.563C178.58 128.563 189.508 128.662 189.508 128.796Z" fill="#263238"/>
<path d="M187.758 166.483C187.758 166.617 176.821 166.715 163.321 166.715C149.821 166.715 138.892 166.617 138.892 166.483C138.892 166.349 149.83 166.251 163.321 166.251C176.812 166.251 187.758 166.358 187.758 166.483Z" fill="#263238"/>
<path d="M187.758 176.26C187.758 176.394 176.821 176.492 163.321 176.492C149.821 176.492 138.892 176.394 138.892 176.26C138.892 176.126 149.83 176.028 163.321 176.028C176.812 176.028 187.758 176.135 187.758 176.26Z" fill="#263238"/>
<path d="M173.544 137.456C173.544 137.581 166.178 137.688 157.098 137.688C148.017 137.688 140.642 137.581 140.642 137.456C140.642 137.331 148.008 137.224 157.098 137.224C166.187 137.224 173.544 137.322 173.544 137.456Z" fill="#263238"/>
<path d="M189.874 137.349C187.836 137.584 185.782 137.662 183.732 137.581C181.681 137.662 179.627 137.584 177.589 137.349C179.628 137.119 181.681 137.042 183.732 137.117C185.782 137.042 187.835 137.119 189.874 137.349Z" fill="#263238"/>
<path d="M189.874 146.956C189.874 147.081 182.535 147.188 173.49 147.188C164.446 147.188 157.098 147.081 157.098 146.956C157.098 146.831 164.428 146.724 173.49 146.724C182.553 146.724 189.874 146.822 189.874 146.956Z" fill="#263238"/>
<path d="M173.544 156.653C173.544 156.778 166.178 156.885 157.098 156.885C148.017 156.885 140.642 156.778 140.642 156.653C140.642 156.528 148.008 156.421 157.098 156.421C166.187 156.421 173.544 156.528 173.544 156.653Z" fill="#263238"/>
<path d="M189.874 156.554C187.835 156.784 185.782 156.862 183.732 156.787C181.681 156.862 179.628 156.784 177.589 156.554C179.627 156.319 181.681 156.242 183.732 156.322C185.782 156.242 187.836 156.319 189.874 156.554Z" fill="#263238"/>
<path d="M150.589 146.733C149.091 146.962 147.575 147.04 146.062 146.965C144.549 147.04 143.032 146.962 141.535 146.733C143.032 146.498 144.549 146.421 146.062 146.501C147.575 146.421 149.092 146.498 150.589 146.733Z" fill="#263238"/>
<path d="M137.535 228.921C137.535 229.054 117.249 229.153 92.2315 229.153C67.2136 229.153 46.9279 229.054 46.9279 228.921C46.9279 228.787 67.2136 228.688 92.2315 228.688C117.249 228.688 137.535 228.796 137.535 228.921Z" fill="#263238"/>
<path d="M138.892 239.376C138.892 239.501 118.615 239.608 93.5975 239.608C68.5797 239.608 48.2939 239.501 48.2939 239.376C48.2939 239.251 68.5707 239.135 93.5975 239.135C118.624 239.135 138.892 239.242 138.892 239.376Z" fill="#263238"/>
<path d="M30.7225 162.742C37.3253 162.742 42.6779 157.389 42.6779 150.787C42.6779 144.184 37.3253 138.831 30.7225 138.831C24.1197 138.831 18.7671 144.184 18.7671 150.787C18.7671 157.389 24.1197 162.742 30.7225 162.742Z" fill="#EBEBEB"/>
<path d="M42.6779 150.787C42.5864 149.81 42.4313 148.841 42.2136 147.885C41.7996 146.29 41.0566 144.8 40.0325 143.51C39.0084 142.22 37.7257 141.158 36.2669 140.393C34.8081 139.627 33.2053 139.176 31.5616 139.067C29.9179 138.958 28.2696 139.194 26.7225 139.76C24.5426 140.554 22.6494 141.981 21.285 143.858C19.8057 145.865 19.0077 148.293 19.0077 150.787C19.0077 153.28 19.8057 155.708 21.285 157.715C22.6534 159.586 24.5456 161.009 26.7225 161.804C28.5686 162.481 30.5548 162.685 32.4997 162.396C34.4447 162.108 36.2863 161.336 37.8564 160.153C39.9934 158.544 41.528 156.265 42.2136 153.679C42.4301 152.726 42.5852 151.76 42.6779 150.787C42.6935 151.039 42.6935 151.293 42.6779 151.546C42.6751 151.844 42.6512 152.143 42.6064 152.438C42.5583 152.859 42.4838 153.277 42.3832 153.688C41.8429 155.937 40.6678 157.984 38.9979 159.584C37.328 161.184 35.2334 162.271 32.9636 162.715C30.8292 163.122 28.6246 162.95 26.5796 162.215C24.3128 161.396 22.3398 159.923 20.91 157.983C19.3653 155.9 18.5314 153.375 18.5314 150.782C18.5314 148.189 19.3653 145.664 20.91 143.581C21.6231 142.591 22.4914 141.723 23.4814 141.01C24.4217 140.306 25.4633 139.749 26.5707 139.358C28.6192 138.625 30.8271 138.455 32.9636 138.867C35.2312 139.302 37.3258 140.38 38.9975 141.973C40.6693 143.565 41.8477 145.605 42.3921 147.849C42.4919 148.261 42.5665 148.678 42.6154 149.099C42.6598 149.395 42.6837 149.693 42.6868 149.992C42.7004 150.257 42.6975 150.522 42.6779 150.787Z" fill="#263238"/>
<path d="M209.964 162.742C216.566 162.742 221.919 157.389 221.919 150.787C221.919 144.184 216.566 138.831 209.964 138.831C203.361 138.831 198.008 144.184 198.008 150.787C198.008 157.389 203.361 162.742 209.964 162.742Z" fill="#EBEBEB"/>
<path d="M221.919 150.787C221.828 149.81 221.673 148.841 221.455 147.885C220.767 145.3 219.233 143.021 217.098 141.412C215.634 140.31 213.935 139.564 212.133 139.233C210.078 138.868 207.963 139.05 205.999 139.76C203.82 140.554 201.926 141.981 200.562 143.858C199.083 145.865 198.285 148.293 198.285 150.787C198.285 153.28 199.083 155.708 200.562 157.715C201.93 159.586 203.823 161.009 205.999 161.804C207.846 162.481 209.832 162.685 211.777 162.396C213.722 162.108 215.563 161.336 217.133 160.153C219.27 158.544 220.805 156.265 221.491 153.679C221.707 152.726 221.862 151.76 221.955 150.787C221.976 151.039 221.976 151.293 221.955 151.546C221.952 151.844 221.928 152.143 221.883 152.438C221.835 152.859 221.761 153.277 221.66 153.688C221.12 155.936 219.947 157.982 218.279 159.582C216.61 161.182 214.518 162.27 212.249 162.715C210.115 163.122 207.911 162.95 205.866 162.215C204.76 161.826 203.721 161.269 202.785 160.563C201.79 159.85 200.918 158.978 200.205 157.983C198.663 155.899 197.831 153.375 197.831 150.782C197.831 148.19 198.663 145.665 200.205 143.581C200.919 142.589 201.79 141.72 202.785 141.01C203.721 140.305 204.76 139.748 205.866 139.358C207.911 138.627 210.116 138.457 212.249 138.867C214.517 139.302 216.612 140.38 218.283 141.973C219.955 143.565 221.134 145.605 221.678 147.849C221.778 148.261 221.852 148.678 221.901 149.099C221.946 149.395 221.97 149.693 221.973 149.992C221.978 150.258 221.96 150.524 221.919 150.787Z" fill="#263238"/>
<path d="M208.544 154.715C208.479 154.715 208.415 154.701 208.356 154.673C208.298 154.645 208.246 154.605 208.205 154.554C208.129 154.463 208.093 154.345 208.103 154.227C208.113 154.108 208.168 153.998 208.258 153.921L212.008 150.787L208.258 147.644C208.213 147.607 208.176 147.561 208.148 147.509C208.121 147.457 208.105 147.401 208.1 147.343C208.095 147.284 208.101 147.226 208.119 147.17C208.137 147.114 208.166 147.063 208.205 147.019C208.28 146.928 208.387 146.871 208.504 146.859C208.621 146.847 208.738 146.882 208.83 146.956L212.982 150.438C213.033 150.481 213.073 150.534 213.101 150.594C213.129 150.655 213.143 150.72 213.142 150.787C213.144 150.852 213.131 150.917 213.103 150.976C213.075 151.035 213.033 151.086 212.982 151.126L208.83 154.608C208.751 154.678 208.649 154.717 208.544 154.715Z" fill="#263238"/>
<path d="M32.785 154.715C32.6773 154.715 32.5732 154.677 32.4903 154.608L28.3207 151.126C28.272 151.084 28.2332 151.032 28.207 150.973C28.1807 150.915 28.1678 150.851 28.1689 150.787C28.1772 150.667 28.2316 150.555 28.3207 150.474L32.4725 146.992C32.5662 146.92 32.684 146.886 32.8019 146.897C32.9197 146.909 33.0286 146.965 33.1064 147.054C33.1447 147.099 33.1737 147.15 33.1918 147.206C33.2099 147.261 33.2166 147.32 33.2116 147.378C33.2066 147.437 33.19 147.493 33.1627 147.545C33.1355 147.597 33.0981 147.642 33.0528 147.679L29.3028 150.822L33.0528 153.956C33.1428 154.034 33.1987 154.144 33.2087 154.262C33.2187 154.381 33.182 154.498 33.1064 154.59C33.0641 154.632 33.0138 154.664 32.9585 154.686C32.9033 154.707 32.8442 154.717 32.785 154.715Z" fill="#263238"/>
<path d="M256.491 268.331L235.598 337.081L191.714 357.965L194.624 381.564L235.857 371.742C257.482 367.367 268.83 359.242 273.624 338.974L281.892 311.938L256.491 268.331Z" fill="#0066CC"/>
<path d="M362.008 248.688C361.6 248.772 361.184 248.816 360.767 248.822C359.642 248.898 358.521 249.035 357.41 249.233C355.771 249.534 354.191 250.098 352.732 250.903C350.94 251.882 349.294 253.105 347.839 254.537C346.438 256.033 345.237 257.704 344.267 259.51C343.463 260.979 342.744 262.493 342.116 264.046C341.571 265.376 341.178 266.465 340.901 267.224C340.781 267.622 340.632 268.01 340.455 268.385C340.513 267.972 340.608 267.566 340.741 267.171C340.964 266.394 341.321 265.287 341.83 263.938C342.421 262.356 343.116 260.813 343.91 259.322C344.87 257.475 346.071 255.763 347.482 254.233C348.966 252.773 350.653 251.534 352.491 250.555C353.994 249.746 355.625 249.199 357.312 248.938C358.438 248.761 359.575 248.666 360.714 248.653C361.146 248.624 361.579 248.636 362.008 248.688Z" fill="#263238"/>
<path d="M208.24 362.189L221.241 353.564C222.544 352.759 224.091 352.442 225.607 352.671L235.553 354.046L258.357 365.483L269.83 364.59L268.892 384.403C268.892 384.403 258.732 384.403 254.767 383.51C250.803 382.617 245.428 378.742 245.428 378.742C245.428 378.742 246.651 380.823 245.901 382.314C245.151 383.805 239.651 385.983 239.651 385.983C239.651 385.983 235.794 387.108 235.276 384.394C235.276 384.394 228.553 384.912 228.187 379.537C228.187 379.537 218.08 377.233 219.794 372.617C221.071 369.189 222.312 366.698 222.312 366.698L225.696 360.189L222.348 359.412C222.348 359.412 215.973 363.635 213.285 363.93C210.598 364.224 208.24 362.189 208.24 362.189Z" fill="#FFBE9D"/>
<path d="M233.428 364.394C232.644 364.896 231.887 365.438 231.16 366.019C229.466 367.476 228.242 369.402 227.642 371.555C227.414 372.755 227.366 373.983 227.499 375.197C227.598 376.331 227.767 377.349 227.919 378.197C228.135 379.109 228.293 380.034 228.392 380.965C228.272 380.741 228.185 380.5 228.133 380.251C227.999 379.787 227.812 379.108 227.615 378.26C227.386 377.262 227.213 376.251 227.098 375.233C226.941 373.976 226.983 372.701 227.223 371.456C227.837 369.215 229.147 367.227 230.964 365.778C231.517 365.343 232.116 364.969 232.749 364.662C232.957 364.531 233.187 364.44 233.428 364.394Z" fill="#EB996E"/>
<path d="M238.517 370.287C238.517 370.287 238.258 370.287 237.803 370.287C237.174 370.311 236.561 370.488 236.017 370.805C235.214 371.28 234.566 371.978 234.151 372.814C233.679 373.86 233.473 375.007 233.553 376.153C233.632 377.318 233.811 378.474 234.089 379.608C234.321 380.671 234.535 381.617 234.749 382.403C235.169 383.992 235.553 384.93 235.491 384.956C235.344 384.763 235.227 384.55 235.142 384.323C234.88 383.725 234.65 383.114 234.455 382.492C234.205 381.706 233.946 380.751 233.705 379.698C233.394 378.544 233.197 377.363 233.116 376.171C233.03 374.942 233.264 373.711 233.794 372.599C234.252 371.7 234.98 370.967 235.874 370.501C236.468 370.181 237.139 370.036 237.812 370.081C238.061 370.089 238.303 370.16 238.517 370.287Z" fill="#EB996E"/>
<path d="M242.008 378.849C241.964 378.849 242.062 378.581 242.366 378.34C242.773 378.036 243.26 377.856 243.767 377.822C244.024 377.787 244.285 377.806 244.534 377.876C244.782 377.947 245.014 378.069 245.214 378.233C245.517 378.51 245.544 378.787 245.499 378.796C245.455 378.805 245.312 378.635 245.035 378.474C244.654 378.283 244.226 378.209 243.803 378.26C243.176 378.355 242.57 378.554 242.008 378.849Z" fill="#EB996E"/>
<path d="M242.848 374.885C242.892 374.885 243.089 375.037 243.196 375.412C243.334 375.893 243.368 376.399 243.294 376.894C243.238 377.399 243.054 377.882 242.758 378.296C242.499 378.608 242.249 378.689 242.223 378.644C242.196 378.599 242.348 378.43 242.499 378.126C242.69 377.717 242.811 377.28 242.857 376.831C242.918 376.382 242.933 375.927 242.901 375.474C242.874 375.126 242.794 374.921 242.848 374.885Z" fill="#EB996E"/>
<path d="M219.803 372.671C219.86 372.391 219.956 372.12 220.089 371.867C220.294 371.367 220.607 370.653 220.982 369.76C221.776 367.974 222.91 365.555 224.178 362.885C224.633 361.921 225.071 361.001 225.49 360.144C226.269 359.353 227.247 358.788 228.321 358.51C229.124 358.283 229.965 358.219 230.794 358.322C231.334 358.384 231.861 358.528 232.357 358.751C232.543 358.817 232.715 358.917 232.866 359.046C232.183 358.822 231.48 358.667 230.767 358.581C229.874 358.512 228.977 358.636 228.136 358.944C227.295 359.252 226.529 359.737 225.892 360.367V360.314C225.482 361.206 225.044 362.099 224.598 363.064C223.33 365.742 222.151 368.153 221.285 369.885C220.857 370.778 220.491 371.456 220.241 371.93C220.125 372.193 219.978 372.442 219.803 372.671Z" fill="#EB996E"/>
<path d="M385.178 333.733C385.178 333.733 383.151 272.412 380.571 263.938C377.991 255.465 374.839 250.805 368.5 246.68C361.232 241.983 335.821 236.662 334.955 235.885L292.205 236.733L289.642 237.019C282.486 237.76 275.691 240.536 270.061 245.017C264.432 249.497 260.203 255.496 257.874 262.305C257.696 262.84 257.526 263.385 257.366 263.938C252.187 281.653 272.499 307.144 272.499 306.019C272.544 311.313 272.892 316.385 273.794 320.001C276.749 331.796 302.535 351.59 304.017 357.349C305.499 363.108 306.232 387.751 306.232 387.751C306.232 387.751 346.517 388.055 364.535 387.965L410.535 387.751L385.178 333.733Z" fill="#0066CC"/>
<path d="M270.991 261.019C270.991 261.019 271.08 261.26 271.223 261.715C271.439 262.39 271.621 263.075 271.767 263.769C272.312 266.309 272.611 268.895 272.66 271.492C272.747 275.342 272.61 279.194 272.249 283.028C271.91 287.349 271.357 292.09 271.142 297.09C270.834 301.776 270.989 306.48 271.607 311.135C272.14 314.926 273.198 318.626 274.749 322.126C275.828 324.476 277.131 326.716 278.642 328.814C279.187 329.546 279.642 330.099 279.928 330.483C280.09 330.668 280.233 330.869 280.357 331.081C280.181 330.911 280.016 330.729 279.866 330.537C279.553 330.171 279.071 329.644 278.508 328.912C276.931 326.844 275.579 324.614 274.473 322.26C272.864 318.744 271.767 315.015 271.214 311.189C270.568 306.509 270.397 301.777 270.705 297.063C270.955 292.055 271.491 287.313 271.848 282.992C272.224 279.174 272.391 275.338 272.348 271.501C272.316 268.914 272.053 266.336 271.562 263.796C271.41 262.903 271.205 262.215 271.107 261.742C271.045 261.505 271.006 261.263 270.991 261.019Z" fill="#263238"/>
<path d="M374 289.09C365.074 317.137 358.143 345.78 353.258 374.805L348.517 383.197C354.482 382.367 359.473 377.956 362.508 372.751C365.544 367.546 366.973 361.572 368.303 355.706C373.366 333.796 378.455 311.099 374 289.09Z" fill="black"/>
<path d="M266.714 362.403L326.33 355.456C326.33 355.456 338.83 280.055 339.133 278.715C339.437 277.376 343.651 253.903 355.464 251.885C367.276 249.867 378.044 254.563 378.741 265.974C379.294 275.09 366.062 340.59 357.723 370.921C355.321 379.644 345.758 387.367 336.419 387.546C312.053 388.001 266.991 387.546 266.991 387.546L266.714 362.403Z" fill="#0066CC"/>
<path d="M339.089 278.715C338.857 280.162 334.116 308.974 326.464 355.501V355.626H326.339C308.776 358.635 288.741 359.037 266.928 362.769L267.107 362.555C267.187 369.537 267.107 379.992 267.178 387.555L266.964 387.34L289.517 387.492C302.133 387.555 314.455 387.564 326.348 387.492L335.187 387.385C338.061 387.435 340.915 386.894 343.571 385.796C348.744 383.65 353.052 379.838 355.812 374.965L356.294 374.072L356.696 373.18C356.965 372.567 357.194 371.938 357.383 371.296C357.776 370.019 358.089 368.706 358.437 367.421C359.142 364.858 359.767 362.305 360.401 359.796C361.651 354.778 362.821 349.894 363.91 345.144C366.098 335.68 368.008 326.822 369.714 318.733C373.071 302.555 375.562 289.403 377.026 280.278C377.392 277.992 377.714 275.965 377.919 274.206C378.044 273.313 378.151 272.51 378.258 271.76C378.366 271.01 378.401 270.34 378.464 269.733C378.579 268.818 378.642 267.897 378.651 266.974C378.651 266.358 378.696 266.037 378.696 266.037C378.696 266.037 378.696 266.349 378.696 266.974C378.706 267.899 378.658 268.823 378.553 269.742C378.5 270.349 378.428 271.028 378.366 271.778C378.303 272.528 378.16 273.34 378.053 274.215C377.839 276.001 377.526 278.019 377.16 280.305C375.75 289.438 373.303 302.626 370.017 318.796C368.339 326.894 366.446 335.76 364.267 345.224C363.184 349.986 362.023 354.873 360.785 359.885C360.151 362.403 359.526 364.956 358.83 367.528C358.473 368.814 358.169 370.108 357.776 371.412C357.584 372.069 357.348 372.714 357.071 373.34L356.66 374.287L356.178 375.18C353.365 380.135 348.978 384.009 343.714 386.189C341.01 387.309 338.105 387.862 335.178 387.814L326.339 387.93C314.437 388.028 302.116 388.019 289.499 387.93L266.937 387.769H266.714V387.555C266.633 380.019 266.714 369.555 266.66 362.555V362.376H266.83C288.651 358.662 308.687 358.287 326.25 355.296L326.107 355.439C330 332.153 333.25 312.974 335.446 299.608C336.58 292.938 337.473 287.715 338.125 284.153C338.437 282.367 338.678 281.037 338.839 280.108C339 279.18 339.089 278.715 339.089 278.715Z" fill="#263238"/>
<path d="M270.366 301.992C270.214 292.617 272.892 282.787 272.848 272.608C269.774 280.655 267.714 289.053 266.714 297.608C266.035 303.474 265.866 309.51 267.544 315.171C269.223 320.831 272.964 326.099 278.366 328.474C272.767 320.947 270.517 311.358 270.366 301.992Z" fill="black"/>
<path d="M268.499 189.046C266.106 187.298 264.257 184.907 263.168 182.151C262.079 179.395 261.795 176.386 262.348 173.474C262.571 172.845 262.571 172.157 262.348 171.528C262.019 171.062 261.559 170.704 261.026 170.501C259.635 169.785 258.403 168.795 257.404 167.59C256.405 166.386 255.66 164.992 255.214 163.492C254.797 161.981 254.784 160.388 255.174 158.87C255.564 157.352 256.344 155.963 257.437 154.84C252.883 153.278 250.901 147.162 252.973 142.804C255.044 138.447 260.267 136.153 265.053 136.671C263.374 134.251 264.053 130.733 265.999 128.519C267.946 126.304 270.848 125.206 273.732 124.644C277.607 123.894 282.267 124.287 284.526 127.537C284.714 125.117 287.116 123.456 289.455 122.849C295.705 121.215 302.937 125.26 304.839 131.492C306.821 129.992 309.116 128.715 311.598 128.671C314.08 128.626 316.723 130.117 317.303 132.537C318.33 130.304 320.991 129.358 323.419 129.108C325.177 128.836 326.977 129.104 328.58 129.876C329.373 130.278 330.022 130.915 330.441 131.699C330.859 132.483 331.026 133.377 330.919 134.26C332.529 133.643 334.312 133.65 335.918 134.278C337.523 134.907 338.836 136.113 339.599 137.659C340.363 139.206 340.521 140.981 340.043 142.638C339.566 144.295 338.487 145.714 337.017 146.617C338.339 147.337 339.454 148.384 340.256 149.658C341.058 150.932 341.521 152.39 341.599 153.893C341.678 155.396 341.371 156.894 340.706 158.245C340.041 159.595 339.042 160.753 337.803 161.608C339.285 161.715 340.053 163.706 339.401 165.046C339.019 165.686 338.488 166.226 337.855 166.621C337.221 167.015 336.502 167.253 335.758 167.313C336.401 172.421 337.047 177.525 337.696 182.626C338.116 185.921 338.526 189.287 337.901 192.546C337.276 195.804 335.419 199.01 332.419 200.394" fill="#263238"/>
<path d="M266.714 174.287C265.821 161.858 277.348 147.724 289.758 147.34L330.455 149.465L331.223 156.117L336.464 240.242L299.276 273.331L294.571 235.492C294.571 235.492 278.499 235.037 272.482 214.956C269.473 204.938 267.696 188.108 266.714 174.287Z" fill="#FFBE9D"/>
<path d="M274.008 189.608C274.1 190.292 274.452 190.914 274.991 191.345C275.53 191.776 276.214 191.982 276.901 191.921C277.239 191.899 277.569 191.811 277.872 191.66C278.175 191.51 278.445 191.3 278.666 191.044C278.887 190.788 279.055 190.491 279.16 190.169C279.265 189.847 279.304 189.508 279.276 189.171C279.185 188.488 278.834 187.868 278.297 187.437C277.76 187.007 277.078 186.799 276.392 186.858C276.053 186.877 275.722 186.964 275.417 187.114C275.113 187.263 274.841 187.472 274.619 187.729C274.396 187.985 274.228 188.284 274.123 188.607C274.018 188.929 273.979 189.27 274.008 189.608Z" fill="#263238"/>
<path d="M271.499 182.51C271.866 182.804 273.651 181.054 276.482 180.724C279.312 180.394 281.562 181.474 281.839 181.081C281.973 180.912 281.553 180.331 280.562 179.796C279.223 179.117 277.708 178.867 276.223 179.081C274.753 179.279 273.386 179.942 272.321 180.974C271.526 181.724 271.312 182.376 271.499 182.51Z" fill="#263238"/>
<path d="M300.562 187.081C300.654 187.765 301.005 188.387 301.544 188.818C302.083 189.249 302.768 189.455 303.455 189.394C303.793 189.374 304.124 189.286 304.427 189.136C304.731 188.986 305.001 188.776 305.223 188.52C305.444 188.264 305.612 187.966 305.716 187.643C305.82 187.321 305.859 186.981 305.83 186.644C305.738 185.96 305.386 185.338 304.847 184.907C304.309 184.476 303.624 184.27 302.937 184.331C302.599 184.353 302.269 184.441 301.966 184.592C301.663 184.742 301.393 184.952 301.172 185.208C300.951 185.464 300.783 185.761 300.678 186.083C300.574 186.405 300.534 186.744 300.562 187.081Z" fill="#263238"/>
<path d="M299.33 179.84C299.705 180.144 301.491 178.385 304.312 178.054C307.133 177.724 309.401 178.804 309.669 178.412C309.794 178.242 309.383 177.662 308.383 177.135C307.05 176.449 305.537 176.196 304.053 176.412C302.58 176.608 301.21 177.271 300.142 178.304C299.357 179.046 299.151 179.706 299.33 179.84Z" fill="#263238"/>
<path d="M291.946 201.662C291.946 201.501 290.16 201.438 287.249 201.465C286.517 201.465 285.812 201.465 285.624 200.956C285.463 200.219 285.528 199.45 285.812 198.751C286.249 196.903 286.705 194.965 287.196 192.938C289.08 184.679 290.339 177.929 290.008 177.858C289.678 177.787 287.874 184.421 285.991 192.679C285.544 194.706 285.098 196.653 284.705 198.501C284.37 199.436 284.37 200.459 284.705 201.394C284.845 201.633 285.037 201.838 285.268 201.993C285.498 202.147 285.76 202.248 286.035 202.287C286.45 202.34 286.87 202.34 287.285 202.287C290.178 202.054 291.955 201.822 291.946 201.662Z" fill="#263238"/>
<path d="M294.571 235.492C304.232 234.313 313.374 230.467 320.973 224.385C320.973 224.385 316.08 240.769 295.339 241.662L294.571 235.492Z" fill="#EB996E"/>
<path d="M294.071 208.331C294.515 207.58 295.144 206.954 295.896 206.512C296.649 206.07 297.502 205.827 298.374 205.804C299.005 205.776 299.635 205.876 300.226 206.099C300.817 206.321 301.357 206.662 301.812 207.099C302.255 207.52 302.558 208.067 302.681 208.665C302.804 209.264 302.741 209.886 302.499 210.447C302.116 211.017 301.571 211.459 300.935 211.716C300.298 211.974 299.6 212.036 298.928 211.894C297.528 211.605 296.201 211.037 295.026 210.224C294.684 210.044 294.38 209.799 294.133 209.501C294.008 209.359 293.927 209.183 293.902 208.996C293.876 208.808 293.907 208.617 293.991 208.447" fill="#EB996E"/>
<path d="M300.517 202.483C300.062 202.483 300.473 205.599 298.151 208.144C295.83 210.688 292.517 210.822 292.553 211.233C292.553 211.43 293.357 211.733 294.741 211.581C296.542 211.357 298.205 210.503 299.437 209.171C300.623 207.891 301.263 206.2 301.223 204.456C301.178 203.153 300.732 202.438 300.517 202.483Z" fill="#263238"/>
<path d="M297.071 169.822C297.455 170.554 300.223 169.822 303.589 169.751C306.955 169.679 309.758 170.233 310.098 169.483C310.25 169.126 309.687 168.465 308.508 167.867C306.944 167.147 305.235 166.796 303.514 166.84C301.793 166.885 300.104 167.325 298.58 168.126C297.455 168.787 296.928 169.474 297.071 169.822Z" fill="#263238"/>
<path d="M271.41 174.162C271.999 174.733 273.857 173.796 276.187 173.447C278.517 173.099 280.562 173.287 280.928 172.554C281.08 172.206 280.687 171.599 279.732 171.108C278.47 170.538 277.067 170.358 275.702 170.59C274.337 170.822 273.073 171.457 272.071 172.412C271.33 173.171 271.178 173.876 271.41 174.162Z" fill="#263238"/>
<path d="M271.892 149.447C271.474 151.417 271.658 153.466 272.421 155.329C273.183 157.192 274.489 158.783 276.168 159.894C277.847 161.004 279.822 161.584 281.835 161.557C283.848 161.53 285.806 160.897 287.455 159.742C286.276 161.233 286.83 163.608 288.267 164.849C289.797 166.007 291.723 166.514 293.625 166.26C295.62 166.099 297.558 165.508 299.304 164.528C301.05 163.548 302.564 162.201 303.741 160.581C304.152 162.132 304.926 163.564 305.998 164.758C307.07 165.952 308.411 166.874 309.909 167.45C311.407 168.025 313.02 168.236 314.616 168.067C316.212 167.897 317.745 167.351 319.089 166.474C317.912 168.012 317.226 169.868 317.119 171.802C317.013 173.735 317.491 175.655 318.491 177.313C319.524 178.954 321.045 180.23 322.84 180.964C324.635 181.697 326.615 181.85 328.501 181.403C330.388 180.955 332.087 179.928 333.362 178.466C334.636 177.005 335.421 175.181 335.607 173.251C336.988 172.425 338.16 171.292 339.033 169.94C339.905 168.588 340.454 167.052 340.636 165.453C340.818 163.854 340.629 162.235 340.084 160.721C339.538 159.207 338.651 157.839 337.491 156.724C338.464 156.202 339.282 155.431 339.861 154.49C340.44 153.549 340.759 152.471 340.785 151.367C340.824 149.167 340.298 146.994 339.258 145.054C336.919 140.242 332.91 136.063 327.821 134.456C322.732 132.849 316.58 134.278 313.375 138.563C313.073 139.089 312.618 139.51 312.071 139.769C311.662 139.818 311.247 139.769 310.86 139.626C310.474 139.483 310.127 139.251 309.848 138.947C306.999 136.653 304.017 134.171 300.392 133.688C298.192 133.455 295.977 133.972 294.107 135.155C292.237 136.338 290.821 138.118 290.089 140.206C287.089 136.331 281.491 134.376 277.017 136.349C272.544 138.322 270.285 144.644 273.035 148.688" fill="#263238"/>
<path d="M326.017 178.608C326.806 182.758 328.183 186.775 330.107 190.537C330.919 192.126 332.089 193.858 333.866 194.01C335.482 194.153 336.946 192.822 337.482 191.331C337.909 189.751 337.949 188.091 337.598 186.492C336.603 180.788 335.231 175.157 333.491 169.635" fill="#263238"/>
<path d="M330.928 181.251C331.169 181.09 340.75 176.215 342.366 186.671C343.982 197.126 333.178 196.59 333.116 196.296C333.053 196.001 330.928 181.251 330.928 181.251Z" fill="#FFBE9D"/>
<path d="M335.687 191.84C335.732 191.796 335.892 191.938 336.214 192.037C336.443 192.097 336.681 192.112 336.916 192.08C337.15 192.048 337.376 191.969 337.58 191.849C338.616 191.278 339.276 189.376 339.035 187.483C338.933 186.584 338.628 185.72 338.142 184.956C337.997 184.645 337.778 184.375 337.504 184.168C337.23 183.961 336.91 183.824 336.571 183.769C336.352 183.735 336.128 183.784 335.944 183.906C335.759 184.028 335.626 184.215 335.571 184.429C335.482 184.742 335.571 184.947 335.526 184.974C335.482 185.001 335.276 184.831 335.294 184.385C335.309 184.116 335.416 183.861 335.598 183.662C335.853 183.402 336.198 183.251 336.562 183.242C337.003 183.262 337.432 183.395 337.807 183.627C338.182 183.86 338.491 184.186 338.705 184.572C339.29 185.41 339.661 186.379 339.785 187.394C340.035 189.51 339.267 191.653 337.83 192.322C337.564 192.452 337.273 192.519 336.977 192.519C336.682 192.519 336.39 192.452 336.125 192.322C335.75 192.09 335.651 191.867 335.687 191.84Z" fill="#EB996E"/>
<path d="M303.964 158.438C303.865 158.493 303.76 158.535 303.651 158.563C303.437 158.635 303.124 158.733 302.705 158.84C301.499 159.163 300.257 159.331 299.008 159.34C298.105 159.343 297.204 159.229 296.33 159.001C295.212 158.732 294.171 158.207 293.29 157.468C292.408 156.729 291.71 155.796 291.249 154.742C290.679 153.474 290.596 152.04 291.017 150.715L291.392 150.965C289.196 153.023 286.393 154.314 283.401 154.644C281.77 154.834 280.118 154.725 278.526 154.322C277.691 154.118 276.89 153.79 276.151 153.349C275.39 152.875 274.773 152.202 274.366 151.403C273.922 150.462 273.696 149.434 273.705 148.394C273.694 147.405 273.757 146.418 273.892 145.438C273.997 144.474 274.24 143.53 274.616 142.635C274.795 142.176 275.073 141.763 275.432 141.424C275.79 141.086 276.219 140.832 276.687 140.679L276.866 141.153C275.174 141.925 273.272 142.107 271.464 141.671C269.819 141.305 268.312 140.482 267.116 139.296C266.046 138.235 265.319 136.88 265.026 135.403C264.734 133.887 264.843 132.321 265.345 130.861C265.846 129.401 266.721 128.097 267.883 127.081C268.358 126.652 268.906 126.311 269.499 126.072C268.974 126.42 268.47 126.798 267.991 127.206C266.71 128.405 265.817 129.96 265.428 131.671C265.167 132.868 265.167 134.107 265.428 135.304C265.723 136.7 266.429 137.975 267.455 138.965C268.604 140.08 270.042 140.85 271.607 141.188C273.311 141.586 275.098 141.403 276.687 140.671L276.866 141.153C276.469 141.286 276.108 141.506 275.807 141.797C275.506 142.087 275.273 142.44 275.124 142.831C274.768 143.686 274.543 144.588 274.455 145.51C274.241 147.367 274.026 149.421 274.883 151.153C275.286 151.853 275.838 152.455 276.5 152.918C277.162 153.381 277.918 153.693 278.714 153.831C280.243 154.225 281.832 154.334 283.401 154.153C286.289 153.851 289.001 152.623 291.133 150.653L291.821 150.01L291.508 150.903C291.113 152.118 291.177 153.436 291.687 154.608C292.148 155.672 292.859 156.609 293.758 157.34C294.547 157.978 295.459 158.446 296.437 158.715C297.277 158.954 298.144 159.08 299.017 159.09C300.25 159.112 301.482 158.992 302.687 158.733C303.106 158.609 303.533 158.511 303.964 158.438Z" fill="white"/>
<path d="M271.08 158.278C271.08 158.278 270.883 158.483 270.428 158.697C269.776 159.005 269.068 159.181 268.348 159.215C267.26 159.294 266.175 159.036 265.241 158.474C264.648 158.123 264.218 157.551 264.044 156.885C263.946 156.511 263.959 156.118 264.082 155.751C264.204 155.385 264.429 155.062 264.732 154.822L264.999 155.278L264.821 155.358C263.705 155.841 262.496 156.073 261.28 156.038C260.064 156.002 258.871 155.7 257.785 155.153C257.129 154.83 256.527 154.408 255.999 153.903C255.633 153.537 255.473 153.304 255.499 153.278C256.26 153.867 257.077 154.382 257.937 154.813C258.984 155.281 260.116 155.526 261.262 155.536C262.408 155.545 263.544 155.317 264.598 154.867L264.758 154.796L267.151 153.769L265.026 155.26C264.811 155.439 264.651 155.677 264.565 155.944C264.48 156.211 264.472 156.497 264.544 156.769C264.689 157.307 265.029 157.772 265.499 158.072C266.349 158.597 267.332 158.863 268.33 158.84C269.27 158.796 270.198 158.606 271.08 158.278Z" fill="white"/>
<path d="M342.794 193.938C343.476 194.124 344.107 194.46 344.642 194.921C346.206 196.067 347.438 197.608 348.214 199.385C348.791 200.73 349.06 202.188 349.002 203.651C348.943 205.114 348.558 206.545 347.875 207.84C347.008 209.436 345.702 210.751 344.112 211.629C342.522 212.507 340.714 212.912 338.901 212.796C337.011 212.67 335.212 211.934 333.776 210.697C332.459 209.574 331.417 208.163 330.732 206.572C330.121 205.24 329.815 203.789 329.833 202.324C329.852 200.858 330.195 199.416 330.839 198.099C331.741 196.356 333.208 194.971 335 194.171C335.626 193.832 336.332 193.669 337.044 193.697C337.044 193.796 336.33 193.912 335.178 194.537C333.576 195.423 332.29 196.787 331.5 198.438C330.96 199.661 330.69 200.985 330.711 202.322C330.731 203.658 331.039 204.974 331.616 206.18C332.821 208.858 335.491 211.537 338.973 211.742C340.587 211.844 342.198 211.488 343.619 210.716C345.041 209.944 346.215 208.786 347.008 207.376C347.649 206.204 348.026 204.907 348.114 203.575C348.202 202.243 347.998 200.907 347.517 199.662C346.825 197.959 345.735 196.446 344.339 195.251C343.401 194.376 342.75 194.019 342.794 193.938Z" fill="#455A64"/>
<path d="M283.678 194.796C283.597 193.797 283.442 192.807 283.214 191.831C282.515 189.178 280.942 186.837 278.749 185.188C277.142 183.971 275.255 183.178 273.261 182.882C271.267 182.585 269.23 182.795 267.339 183.492C266.243 183.875 265.216 184.43 264.294 185.135C263.318 185.845 262.462 186.707 261.758 187.688C260.241 189.747 259.423 192.238 259.423 194.796C259.423 197.353 260.241 199.844 261.758 201.903C263.165 203.826 265.11 205.289 267.348 206.108C269.374 206.841 271.558 207.026 273.678 206.644C275.524 206.306 277.264 205.538 278.758 204.403C280.949 202.755 282.521 200.418 283.223 197.769C283.451 196.791 283.606 195.797 283.687 194.796C283.715 195.057 283.715 195.32 283.687 195.581C283.69 195.898 283.667 196.215 283.616 196.528C283.573 196.962 283.496 197.392 283.383 197.813C282.729 200.545 281.152 202.967 278.919 204.671C277.27 205.938 275.329 206.77 273.275 207.092C271.22 207.413 269.117 207.213 267.16 206.51C264.836 205.67 262.814 204.16 261.348 202.171C259.77 200.035 258.919 197.45 258.919 194.796C258.919 192.141 259.77 189.556 261.348 187.421C262.088 186.387 262.993 185.482 264.026 184.742C264.984 184.016 266.051 183.447 267.187 183.054C269.143 182.346 271.247 182.142 273.303 182.464C275.358 182.785 277.3 183.621 278.946 184.894C281.182 186.594 282.76 189.018 283.41 191.751C283.522 192.169 283.6 192.597 283.642 193.028C283.693 193.341 283.717 193.657 283.714 193.974C283.732 194.248 283.72 194.524 283.678 194.796Z" fill="#263238"/>
<path d="M315.241 192.706C315.153 191.705 314.994 190.712 314.767 189.733C314.071 187.081 312.497 184.743 310.303 183.099C308.696 181.882 306.809 181.089 304.815 180.792C302.821 180.496 300.784 180.706 298.892 181.403C297.797 181.786 296.769 182.34 295.848 183.046C294.869 183.755 294.009 184.617 293.303 185.599C291.789 187.659 290.972 190.149 290.972 192.706C290.972 195.263 291.789 197.753 293.303 199.813C294.009 200.795 294.869 201.657 295.848 202.367C296.756 203.081 297.772 203.648 298.857 204.046C300.878 204.785 303.06 204.973 305.178 204.59C307.027 204.254 308.771 203.486 310.267 202.349C312.46 200.7 314.033 198.36 314.732 195.706C314.954 194.73 315.109 193.74 315.196 192.742C315.218 193.003 315.218 193.266 315.196 193.528C315.199 193.845 315.175 194.161 315.125 194.474C315.078 194.905 315 195.331 314.892 195.751C314.334 198.039 313.133 200.12 311.431 201.748C309.728 203.376 307.596 204.483 305.285 204.938C303.097 205.357 300.836 205.178 298.741 204.421C297.605 204.027 296.539 203.457 295.58 202.733C294.548 201.991 293.644 201.086 292.901 200.054C291.324 197.919 290.472 195.334 290.472 192.679C290.472 190.025 291.324 187.44 292.901 185.304C293.644 184.273 294.548 183.368 295.58 182.626C296.539 181.902 297.605 181.332 298.741 180.938C300.697 180.245 302.796 180.055 304.844 180.386C306.893 180.716 308.826 181.557 310.464 182.831C312.698 184.534 314.275 186.956 314.928 189.688C315.036 190.111 315.113 190.541 315.16 190.974C315.211 191.287 315.235 191.604 315.232 191.921C315.256 192.182 315.259 192.445 315.241 192.706Z" fill="#263238"/>
<path d="M291.196 190.126C291.142 190.188 290.758 189.858 290.044 189.528C289.107 189.103 288.079 188.919 287.053 188.992C286.027 189.066 285.036 189.394 284.169 189.947C283.508 190.376 283.169 190.751 283.107 190.706C283.044 190.662 283.321 190.206 283.999 189.679C284.874 189.002 285.931 188.601 287.035 188.528C288.141 188.448 289.246 188.693 290.214 189.233C290.919 189.671 291.232 190.099 291.196 190.126Z" fill="#263238"/>
<path d="M332.044 181.867C332.044 181.983 328.16 183.242 323.285 184.662C320.365 185.594 317.4 186.377 314.401 187.01C317.272 185.93 320.195 184.997 323.16 184.215C326.08 183.282 329.045 182.498 332.044 181.867Z" fill="#263238"/>
<path d="M270.508 203.751C270.308 203.793 270.101 203.793 269.901 203.751C269.35 203.679 268.808 203.547 268.285 203.358C266.53 202.73 265.022 201.557 263.982 200.009C262.943 198.462 262.426 196.622 262.508 194.76C262.531 194.205 262.615 193.654 262.758 193.117C262.796 192.914 262.871 192.72 262.982 192.546C263.062 192.546 262.821 193.438 262.839 194.769C262.845 196.545 263.377 198.279 264.366 199.753C265.356 201.228 266.76 202.376 268.401 203.055C269.66 203.581 270.526 203.671 270.508 203.751Z" fill="white"/>
<path d="M294.669 200.679C294.669 200.679 294.455 200.528 294.16 200.162C293.752 199.651 293.396 199.101 293.098 198.519C292.085 196.578 291.641 194.391 291.818 192.209C291.995 190.028 292.785 187.94 294.098 186.188C294.484 185.659 294.924 185.172 295.41 184.733C295.758 184.421 295.973 184.278 295.991 184.304C296.008 184.331 295.276 185.037 294.366 186.376C293.168 188.119 292.447 190.147 292.277 192.255C292.106 194.364 292.49 196.48 293.392 198.394C294.071 199.849 294.732 200.635 294.669 200.679Z" fill="white"/>
<path d="M298.794 202.956C298.732 203.072 298.303 202.956 297.821 202.733C297.339 202.51 297.008 202.206 297.062 202.09C297.116 201.974 297.553 202.09 298.035 202.313C298.517 202.537 298.857 202.84 298.794 202.956Z" fill="white"/>
<path d="M219.33 387.742H95.7315L77.1154 302.635C76.9043 301.666 76.9133 300.663 77.1416 299.698C77.37 298.733 77.8119 297.832 78.4348 297.061C79.0577 296.29 79.8457 295.668 80.7408 295.242C81.6359 294.816 82.6151 294.597 83.6065 294.599L193.169 294.84C194.672 294.84 196.131 295.352 197.304 296.292C198.477 297.232 199.296 298.543 199.624 300.01L219.33 387.742Z" fill="#E0E0E0"/>
<path d="M219.33 387.742H277.83C277.83 385.748 277.038 383.836 275.628 382.426C274.218 381.016 272.306 380.224 270.312 380.224H212.678L219.33 387.742Z" fill="#E0E0E0"/>
<path d="M212.678 387.742C212.641 387.668 212.611 387.59 212.589 387.51C212.589 387.323 212.473 387.09 212.392 386.814C212.223 386.162 211.982 385.26 211.678 384.135C211.071 381.805 210.214 378.412 209.178 374.215C207.115 365.822 204.392 354.206 201.464 341.349C198.535 328.492 195.857 316.867 193.874 308.456L191.517 298.501L190.892 295.822C190.83 295.528 190.776 295.296 190.732 295.108C190.687 294.921 190.732 294.867 190.732 294.867C190.769 294.941 190.799 295.019 190.821 295.099C190.821 295.287 190.937 295.51 191.017 295.796C191.187 296.447 191.428 297.349 191.732 298.474C192.339 300.814 193.196 304.206 194.232 308.403C196.294 316.787 199.017 328.412 201.946 341.269C204.874 354.126 207.553 365.751 209.535 374.153L211.892 384.108C212.16 385.26 212.366 386.171 212.517 386.787C212.58 387.073 212.633 387.305 212.678 387.492C212.723 387.68 212.678 387.733 212.678 387.742Z" fill="#263238"/>
<path d="M141.035 331.724C139.071 331.305 137.196 333.108 136.758 335.072C136.522 336.175 136.613 337.322 137.019 338.373C137.425 339.424 138.129 340.335 139.044 340.992C139.983 341.608 141.091 341.913 142.212 341.865C143.334 341.817 144.412 341.418 145.294 340.724C146.143 339.984 146.716 338.978 146.919 337.87C147.121 336.763 146.942 335.619 146.41 334.626C145.276 332.689 141.124 330.983 139.115 331.947" fill="white"/>
</svg>
