<svg width="16" height="16" viewBox="0 0 16 16" fill="none" xmlns="http://www.w3.org/2000/svg">
<circle cx="7.89696" cy="7.89696" r="7.89696" fill="#25D366"/>
<g clip-path="url(#clip0_15_22)">
<path d="M10.8484 4.72479C10.0385 3.91062 8.9602 3.46456 7.81257 3.46456C5.44801 3.46456 3.52085 5.39172 3.52085 7.75628C3.52085 8.51415 3.72006 9.25037 4.0925 9.89997L3.48621 12.1259L5.75982 11.5283C6.38777 11.8704 7.09367 12.0523 7.81257 12.0523C10.1771 12.0523 12.1043 10.1252 12.1043 7.76061C12.1043 6.61298 11.6582 5.53463 10.8484 4.72479ZM7.81257 11.3248C7.17163 11.3248 6.54368 11.1515 5.99368 10.8267L5.86376 10.7488L4.51258 11.1039L4.87203 9.78737L4.78541 9.65312C4.4303 9.0858 4.23975 8.42754 4.23975 7.75628C4.23975 5.79014 5.8421 4.18779 7.80824 4.18779C8.76099 4.18779 9.65744 4.56023 10.3287 5.23582C11.0043 5.9114 11.3724 6.80786 11.3724 7.76061C11.3811 9.72674 9.7787 11.3248 7.81257 11.3248ZM9.77004 8.65706C9.66178 8.60509 9.13343 8.34525 9.03816 8.30628C8.93855 8.27163 8.86926 8.25431 8.79564 8.35824C8.72201 8.46651 8.51847 8.70903 8.45784 8.77832C8.39721 8.85194 8.33225 8.86061 8.22398 8.80431C8.11572 8.75234 7.76926 8.63541 7.36218 8.27163C7.04171 7.98581 6.8295 7.63502 6.76454 7.52675C6.70391 7.41848 6.75588 7.36219 6.81218 7.30589C6.85982 7.25825 6.92045 7.1803 6.97241 7.11967C7.02438 7.05904 7.04604 7.0114 7.08068 6.94211C7.11533 6.86849 7.098 6.80786 7.07202 6.75589C7.04604 6.70392 6.8295 6.17558 6.74289 5.95904C6.65627 5.75117 6.56533 5.77715 6.50037 5.77282C6.43541 5.77282 6.36612 5.77282 6.2925 5.77282C6.21887 5.77282 6.10628 5.79881 6.00667 5.90707C5.91139 6.01534 5.63423 6.27518 5.63423 6.80353C5.63423 7.33187 6.01966 7.84289 6.07163 7.91218C6.1236 7.98581 6.8295 9.06848 7.90351 9.53186C8.15902 9.64446 8.35824 9.70942 8.51414 9.75706C8.76965 9.83934 9.00351 9.82635 9.18973 9.80037C9.3976 9.77005 9.82634 9.54052 9.91296 9.28934C10.0039 9.03816 10.0039 8.82596 9.97359 8.77832C9.94327 8.73068 9.87831 8.70903 9.77004 8.65706Z" fill="white"/>
</g>
<defs>
<clipPath id="clip0_15_22">
<rect width="10.3937" height="10.3937" fill="white" transform="translate(2.59842 2.59842)"/>
</clipPath>
</defs>
</svg>
